<?xml version="1.0" encoding="UTF-8"?>
<svg width="1220px" height="250px" viewBox="0 0 1220 250" version="1.1" xmlns="http://www.w3.org/2000/svg" xmlns:xlink="http://www.w3.org/1999/xlink">
    <title>Scene_Lots_of_money</title>
    <defs>
        <polygon id="path-1" points="0 0 1220 0 1220 250 0 250"></polygon>
        <polygon id="path-3" points="0 0 1220 0 1220 250 0 250"></polygon>
    </defs>
    <g id="Characters" stroke="none" stroke-width="1" fill="none" fill-rule="evenodd">
        <g id="Scene_Lots_of_money">
            <polygon id="background" fill="#DBF8ED" fill-rule="nonzero" transform="translate(610.000000, 125.000000) scale(-1, 1) rotate(-180.000000) translate(-610.000000, -125.000000) " points="-2.27373675e-13 1.13686838e-13 1220 1.13686838e-13 1220 250 -2.27373675e-13 250"></polygon>
            <g id="main-cloud" transform="translate(610.000000, 125.000000) scale(-1, 1) rotate(-180.000000) translate(-610.000000, -125.000000) translate(0.000000, 0.000000)">
                <mask id="mask-2" fill="white">
                    <use xlink:href="#path-1"></use>
                </mask>
                <g id="path16"></g>
                <path d="M855.472576,-1686.07475 L878.478871,-1668.60338 C864.310674,-1646.49816 832.478278,-1615.61007 823.815678,-1602.5712 C796.272472,-1561.09682 942.262451,-1591.19224 1010.42277,-1595.97866 L1024.01998,-1573.41357 C965.974894,-1542.40319 801.710928,-1491.82894 803.087525,-1418.71675 C803.296903,-1407.60308 802.48412,-1381.02359 801.684536,-1353.74224 L801.588715,-1350.46606 C800.823719,-1324.24473 800.109055,-1297.92082 800.360742,-1284.55652 C800.749105,-1263.92937 797.643821,-1231.72632 802.992303,-1201.99482 C813.244201,-1174.71087 843.368713,-1151.01235 861.833257,-1141.2854 C967.946232,-1085.39623 967.670131,-1236.81712 1015.20094,-1261.92774 C1103.97825,-1308.84639 1183.33428,-1291.80875 1256.40473,-1297.06438 C1256.40473,-1297.06438 1286.90153,-1347.10668 1319.12146,-1348.18451 C1360.92701,-1349.5863 1388.67096,-1288.44492 1435.2526,-1285.87493 C1433.02354,-1285.99408 1489.96822,-1335.21682 1581.66494,-1336.08914 C1594.12695,-1336.20989 1611.08522,-1336.36658 1628.21511,-1336.52233 L1631.33056,-1336.55063 C1665.08094,-1336.85692 1698.48026,-1337.15091 1698.48026,-1337.15091 C1698.48026,-1337.15091 1718.09216,-1288.1691 1757.88669,-1288.90808 C1797.68155,-1289.64623 1906.36071,-1302.30064 1914.81811,-1221.09788 C1919.0655,-1180.39071 1919.52688,-1159.59845 1919.54363,-1158.78304 L1919.54413,-1158.75808 L1919.54413,-1158.75808 C1889.04782,-1090.16226 1724.68735,-1132.7333 1731.15767,-1066.65631 C1741.5009,-961.100375 1881.15288,-1054.91731 1852.73927,-892.733407 C1851.96981,-888.368136 1845.02663,-884.906962 1837.96917,-881.238108 L1837.04848,-880.758293 C1830.29931,-877.22967 1823.68662,-873.466809 1822.51334,-868.496733 C1813.26609,-829.311488 1823.54761,-779.560433 1797.82732,-769.596006 C1754.95349,-753.011077 1679.94237,-789.744908 1679.94237,-789.744908 C1679.94237,-789.744908 1691.61337,-669.341449 1687.92424,-658.868409 C1681.6234,-640.99838 1619.9274,-619.175539 1619.50695,-617.537579 C1613.80277,-595.036826 1651.39812,-523.237054 1638.99747,-487.631378 C1611.55879,-408.935728 1452.89382,-330.757999 1348.9329,-350.453452 C1348.9329,-350.453452 1336.21067,-331.15382 1331.85654,-308.124994 C1329.28839,-294.54411 1366.18783,-268.934028 1359.3271,-249.117529 C1345.39833,-208.914217 1315.16941,-168.612653 1270.84231,-138.759093 C1217.15975,-102.605938 1251.7993,2.36871845 1217.36971,42.9957715 C1192.25265,72.6532766 1185.09567,72.8730409 1133.25328,85.4183281 C1045.66528,106.600963 1042.34985,31.8085755 965.636156,43.0396294 C858.455596,58.736395 932.796163,139.444002 842.861685,183.632927 C781.943178,213.546843 718.768117,152.219073 674.975602,144.737508 C629.898115,137.017578 558.154449,165.604299 500.388662,158.061066 C469.327144,154.013578 449.236623,137.236621 429.279179,120.212048 L426.784408,118.08359 C405.987356,100.350738 384.844709,82.9135267 351.106577,79.8799539 C347.227596,79.5317121 343.784275,79.0772039 340.710217,78.5192566 C332.410152,85.0714409 324.370575,89.9746948 316.762276,90.6123942 C227.742248,98.1019152 231.138399,32.0217806 167.182434,22.5645732 C59.9078148,6.73525988 150.788502,56.2051702 64.8206042,91.6796418 C23.7134982,108.647978 -43.0311164,66.2717016 -43.0311164,66.2717016 C-43.0311164,66.2717016 -71.1466726,85.2441184 -69.052977,93.860283 C-65.2887435,109.371429 -39.4135062,125.401102 -60.6587472,154.823993 C-119.594069,236.508305 -162.868965,178.962578 -220.937025,165.047412 C-238.615616,160.809648 -249.177968,190.639872 -283.557854,176.196775 C-288.725022,174.027464 -296.00571,161.786703 -303.204632,149.104015 L-304.12303,147.48329 L-304.12303,147.48329 L-305.039525,145.862215 C-312.513698,132.634132 -319.695926,119.816476 -324.098583,118.321126 C-328.18812,116.924333 -341.339974,119.246985 -354.885398,121.965477 L-356.197183,122.229681 C-356.853399,122.36229 -357.509881,122.495574 -358.165649,122.629157 L-359.475939,122.896611 C-363.184075,123.654896 -366.848218,124.414729 -370.289666,125.107596 L-372.089822,125.467775 C-374.262182,125.899426 -376.328101,126.297978 -378.239163,126.644869 C-400.879563,107.372659 -412.487214,84.5326765 -424.890019,71.6367211 C-433.006495,63.1995474 -395.924331,27.5574486 -414.422467,12.5149947 C-426.994868,2.30442772 -503.753615,2.72685941 -511.190708,13.9506651 C-523.971446,33.3207895 -476.133613,49.1751229 -503.112056,82.1143998 C-527.738267,112.162021 -558.033839,93.2329222 -579.691112,103.972803 C-597.507017,112.817734 -569.727666,155.77164 -632.598452,153.184013 C-701.473086,150.338269 -638.45383,107.933807 -664.535913,87.5304997 C-690.630544,67.3989124 -781.698801,154.974125 -854.001683,49.340717 C-857.043085,44.8887125 -794.308027,-44.7840531 -781.632898,-58.0117512 C-739.132946,-102.367424 -726.815942,-47.5618409 -679.788114,-110.080904 L-678.393632,-111.957746 L-678.43079,-111.939246 C-680.822348,-111.439971 -736.858474,-144.049709 -735.893528,-165.86327 C-734.362896,-200.167044 -733.345906,-197.277502 -717.218488,-227.33299 C-708.397151,-243.773596 -696.305145,-249.055117 -684.160632,-253.76036 L-682.731817,-254.311898 C-671.540581,-258.621448 -660.411934,-262.794036 -651.86466,-275.112593 C-635.365631,-298.908685 -655.454545,-335.612668 -635.902479,-361.966416 C-583.623679,-432.45753 -552.320387,-399.654486 -504.64341,-441.564007 C-487.694204,-456.447761 -455.742341,-568.149533 -415.805884,-539.972868 C-372.359136,-509.65651 -376.265234,-449.898738 -322.791243,-518.726907 L-322.785191,-518.737935 C-337.88353,-527.346615 -363.203445,-528.094319 -372.092418,-564.021644 C-373.810293,-570.958891 -366.83913,-587.73 -359.353859,-604.75407 L-358.396129,-606.927991 L-358.396129,-606.927991 L-357.436594,-609.100231 C-349.603301,-626.82127 -341.967426,-643.930986 -343.792547,-649.572599 C-345.534328,-654.98889 -358.684888,-667.262093 -372.242575,-679.425217 L-373.514465,-680.564975 C-373.938602,-680.944645 -374.362801,-681.323995 -374.786727,-681.702812 L-376.057344,-682.837452 C-382.402967,-688.500539 -388.61142,-693.995922 -393.549566,-698.606024 C-393.384938,-701.137427 -393.166363,-703.630489 -392.900677,-706.085751 C-442.910478,-739.698116 -476.237757,-756.594991 -506.659918,-747.068164 C-520.468095,-742.737477 -541.143231,-728.248436 -561.823988,-713.231581 L-564.209864,-711.497073 C-564.607384,-711.20778 -565.004808,-710.91843 -565.402088,-710.629089 L-567.783647,-708.893718 C-584.833479,-696.465628 -601.43602,-684.309828 -613.711517,-677.871919 L-621.778506,-695.663915 C-593.572361,-731.120896 -522.204133,-796.112012 -556.847453,-798.039878 C-560.491063,-798.243374 -580.423758,-794.059478 -601.070986,-790.162547 L-602.792908,-789.838567 C-610.258847,-788.438401 -617.761546,-787.092588 -624.567611,-786.021239 L-625.748192,-811.487112 C-623.835223,-812.531761 -622.001928,-813.562623 -619.927036,-814.617936 C-560.361977,-845.088175 -534.634973,-869.743154 -506.518481,-906.61666 C-511.524851,-912.913209 -516.929447,-918.406828 -523.833658,-921.916259 C-546.450825,-933.400304 -569.213771,-872.2678 -614.462575,-938.541242 C-664.022905,-1011.15152 -572.650349,-978.999737 -571.655435,-1021.2181 C-570.947639,-1063.24306 -729.879869,-1089.67352 -676.942066,-1244.09171 C-674.704571,-1250.5929 -535.21149,-1254.73863 -512.028983,-1251.85122 C-434.293053,-1242.17208 -480.954388,-1187.82548 -381.195755,-1187.35131 L-378.216632,-1187.35375 L-378.261408,-1187.37869 C-380.594328,-1189.44444 -389.936516,-1271.59749 -366.894992,-1287.22751 C-330.648808,-1311.79442 -332.82948,-1308.55252 -289.808233,-1314.95316 C-266.275724,-1318.45491 -251.662922,-1310.11075 -237.599423,-1301.27385 L-235.121628,-1299.71159 L-235.121628,-1299.71159 L-233.471052,-1298.67125 C-221.36135,-1291.05804 -209.049694,-1283.90655 -191.160894,-1284.50739 C-154.257952,-1285.75993 -132.02857,-1334.2663 -90.1837094,-1334.34412 C-26.3941086,-1334.47457 -2.11513585,-1316.00974 21.6332512,-1296.98785 L24.1328056,-1294.98426 C33.0173583,-1287.86485 42.0189701,-1280.75605 53.1758874,-1274.60107 C73.441068,-1279.40488 95.8113976,-1282.68016 109.133001,-1298.64826 C108.013872,-1297.30207 103.73567,-1356.17484 146.140438,-1414.25386 C152.07663,-1422.38762 160.224596,-1433.54093 168.394106,-1444.72024 L169.835562,-1446.69272 C185.203968,-1467.72238 200.192208,-1488.2202 200.192208,-1488.2202 L200.239699,-1488.20784 C201.782998,-1487.81014 240.543598,-1478.11627 258.356488,-1502.98237 C264.44329,-1511.47922 273.308082,-1525.46 284.473969,-1539.07052 C270.978631,-1543.52343 258.88008,-1547.92038 249.770071,-1552.29451 L261.818282,-1574.09833 C277.311069,-1573.60499 297.34448,-1571.55352 317.895379,-1569.5281 C334.576408,-1579.35406 353.677093,-1582.30229 374.508192,-1569.91499 C377.363615,-1568.21767 380.065876,-1566.59479 382.616668,-1565.04872 C409.769411,-1565.0072 426.585872,-1569.63957 415.974106,-1585.67525 C413.299468,-1589.71853 392.291577,-1608.21248 371.764363,-1627.17773 L370.123568,-1628.69569 C363.84052,-1634.51636 357.64986,-1640.34629 352.094187,-1645.78232 L377.235769,-1666.38866 C379.761105,-1665.22746 382.212094,-1664.13829 384.871664,-1662.81929 C479.338912,-1616.27509 525.475416,-1615.70481 609.852093,-1617.27058 C730.226746,-1619.50449 814.080172,-1668.16484 855.472576,-1686.07475 Z M411.882387,-1486.99522 L411.256331,-1485.57703 C392.444479,-1443.46425 355.723501,-1400.06914 385.592995,-1382.05658 C411.358102,-1366.52127 428.642952,-1373.85236 444.409585,-1385.09546 C440.199325,-1433.05754 431.893208,-1466.1925 411.882387,-1486.99522 Z" id="Combined-Shape" fill="#FFFFFF" mask="url(#mask-2)"></path>
            </g>
            <g id="clouds" transform="translate(610.000000, 125.000000) scale(-1, 1) rotate(-180.000000) translate(-610.000000, -125.000000) translate(0.000000, 0.000000)">
                <mask id="mask-4" fill="white">
                    <use xlink:href="#path-3"></use>
                </mask>
                <g id="path16"></g>
                <path d="M304.650428,134.489902 L75.8985219,134.489902 C75.8985219,134.489902 79.8425531,168.396087 121.649157,153.413974 C121.649157,153.413974 119.282866,214.12942 173.70948,214.12942 C228.13673,214.12942 225.770439,176.281276 225.770439,176.281276 C225.770439,176.281276 236.81398,191.262754 263.633011,191.262754 C290.452043,191.262754 304.650428,165.241757 304.650428,134.489902" id="path46" fill="#FFFFFF" fill-rule="nonzero" mask="url(#mask-4)"></path>
                <path d="M1154.56286,134.046877 L1001.69686,134.046877 C1001.69686,134.046877 1004.33257,156.705203 1032.26993,146.693414 C1032.26993,146.693414 1030.68902,187.267138 1067.06027,187.267138 C1103.43152,187.267138 1101.8506,161.974064 1101.8506,161.974064 C1101.8506,161.974064 1109.23033,171.985853 1127.15226,171.985853 C1145.07482,171.985853 1154.56286,154.597023 1154.56286,134.046877" id="path50" fill="#FFFFFF" fill-rule="nonzero" mask="url(#mask-4)"></path>
            </g>
        </g>
    </g>
</svg>