<?xml version="1.0" encoding="UTF-8"?>
<!DOCTYPE svg PUBLIC "-//W3C//DTD SVG 1.1//EN" "http://www.w3.org/Graphics/SVG/1.1/DTD/svg11.dtd">
<svg version="1.1" id="Layer_1" xmlns="http://www.w3.org/2000/svg" xmlns:xlink="http://www.w3.org/1999/xlink" x="0px" y="0px"
     width="60px" height="60px" viewBox="0 0 60 60" enable-background="new 0 0 60 60" xml:space="preserve">
<g>
	<g opacity="0.3">
		<path fill="#4893A0" d="M30,59.5C13.7,59.5,0.5,46.3,0.5,30S13.7,0.5,30,0.5S59.5,13.7,59.5,30S46.3,59.5,30,59.5z M30,4.5
		                        C15.9,4.5,4.5,15.9,4.5,30S15.9,55.5,30,55.5S55.5,44.1,55.5,30S44.1,4.5,30,4.5z"/>
	</g>
	<path fill="#4893A0" d="M55.5,30h4C59.5,13.7,46.3,0.5,30,0.5v4C44.1,4.5,55.5,15.9,55.5,30z"/>
</g>
</svg>