<?xml version="1.0" encoding="UTF-8"?>
<svg width="165px" height="160px" viewBox="0 0 165 160" version="1.1" xmlns="http://www.w3.org/2000/svg" xmlns:xlink="http://www.w3.org/1999/xlink">
    <title>Group 3</title>
    <g id="✔️-Desktop-Final" stroke="none" stroke-width="1" fill="none" fill-rule="evenodd">
        <g id="Investment-Tool---Step-2" transform="translate(-717.000000, -684.000000)">
            <g id="Group-12" transform="translate(170.000000, 522.000000)">
                <g id="Group-11" transform="translate(40.000000, 84.000000)">
                    <g id="Group-3" transform="translate(507.000000, 78.000000)">
                        <g id="Objects__EverydayObjects_Calender" transform="translate(0.000000, 12.000000)">
                            <g id="g18" transform="translate(32.000000, 51.565902) scale(-1, 1) rotate(-180.000000) translate(-32.000000, -51.565902) translate(0.000000, 25.131804)">
                                <path d="M0,4.86630039 C0.0109979133,2.17559234 2.17955075,5.68434189e-14 4.85086535,5.68434189e-14 L59.1491347,5.68434189e-14 C61.8204492,5.68434189e-14 63.9890021,2.17559234 64,4.86630039 L64,52.797381 L0,52.797381 L0,4.86630039 Z" id="path20" fill="#F8DBF5" fill-rule="nonzero"></path>
                                <rect id="Rectangle" fill="#FFFFFF" x="7" y="38" width="12" height="9" rx="2"></rect>
                                <rect id="Rectangle-Copy-3" fill="#FFFFFF" x="26" y="38" width="12" height="9" rx="2"></rect>
                                <rect id="Rectangle-Copy-6" fill="#FFFFFF" x="45" y="38" width="12" height="9" rx="2"></rect>
                                <rect id="Rectangle-Copy" fill="#FFFFFF" x="7" y="23" width="12" height="9" rx="2"></rect>
                                <rect id="Rectangle-Copy-4" fill="#FFFFFF" x="26" y="23" width="12" height="9" rx="2"></rect>
                                <rect id="Rectangle-Copy-7" fill="#FFFFFF" x="45" y="23" width="12" height="9" rx="2"></rect>
                                <rect id="Rectangle-Copy-2" fill="#FFFFFF" x="7" y="8" width="12" height="9" rx="2"></rect>
                                <rect id="Rectangle-Copy-5" fill="#FFFFFF" x="26" y="8" width="12" height="9" rx="2"></rect>
                                <rect id="Rectangle-Copy-8" fill="#FFFFFF" x="45" y="8" width="12" height="9" rx="2"></rect>
                                <path d="M13.466127,39.4088439 L13.466127,39.4088439 C13.1241858,39.4120059 12.7980543,39.5538415 12.5627156,39.8018279 L9.26978136,43.3025468 C8.84111268,43.8445936 8.93326064,44.6314648 9.47530743,45.0601335 C9.94869497,45.4345975 10.6226398,45.4174327 11.076604,45.0190283 L13.4887123,42.4578572 L19.848728,49.0075893 C20.3180502,49.5148548 21.1098902,49.545119 21.616704,49.0757969 C22.1239694,48.606023 22.1542337,47.8146346 21.6849115,47.3073692 C21.6654882,47.286139 21.6451614,47.2658123 21.6239313,47.2459372 L14.3559871,39.7792426 C14.1201968,39.5425488 13.7999375,39.4097474 13.466127,39.4088439" id="path50" fill="#FF5F00" fill-rule="nonzero"></path>
                            </g>
                            <g id="g22" transform="translate(32.000000, 15.500000) scale(-1, 1) rotate(-180.000000) translate(-32.000000, -15.500000) translate(0.000000, 7.000000)" fill="#C5569A" fill-rule="nonzero">
                                <path d="M64,0 L64,15.7700461 C64,16.446129 63.452461,16.9956912 62.7745182,17 L1.2294096,17 C0.549895667,16.9976498 0,16.4476959 0,15.7700461 L0,0 L64,0 Z" id="path24"></path>
                            </g>
                            <g id="g26" transform="translate(16.000000, 7.000000) scale(-1, 1) rotate(-180.000000) translate(-16.000000, -7.000000) translate(13.000000, 0.000000)" fill="#990066" fill-rule="nonzero">
                                <path d="M3,0 C1.34325,0 0,1.438967 0,3.21377331 L0,10.7862267 C0,12.561033 1.34325,14 3,14 C4.65675,14 6,12.561033 6,10.7862267 L6,3.21377331 C6,1.438967 4.65675,0 3,0" id="path28"></path>
                            </g>
                            <g id="g30" transform="translate(47.000000, 7.000000) scale(-1, 1) rotate(-180.000000) translate(-47.000000, -7.000000) translate(44.000000, 0.000000)" fill="#990066" fill-rule="nonzero">
                                <path d="M3,0 C1.34325,0 0,1.438967 0,3.21377331 L0,10.7862267 C0,12.561033 1.34325,14 3,14 C4.65675,14 6,12.561033 6,10.7862267 L6,3.21377331 C6,1.438967 4.65675,0 3,0" id="path32"></path>
                            </g>
                            <g id="Group-9" transform="translate(37.000000, 52.000000)">
                                <circle id="Oval" fill="#31A3AE" cx="19" cy="19" r="19"></circle>
                                <path d="M25.8519485,23.269245 C25.5857248,24.0401948 25.240466,24.693826 24.816172,25.2301389 C24.391878,25.7664517 23.9093476,26.2063959 23.3685808,26.5499713 C22.827814,26.8935467 22.2412899,27.1449434 21.6090087,27.3041612 C20.9767275,27.4633791 20.3361268,27.5429881 19.6872066,27.5429881 C18.8552576,27.5429881 18.0649061,27.4172897 17.316152,27.1658931 C16.567398,26.9144964 15.8851998,26.5374015 15.2695576,26.0346082 C14.6539153,25.5318149 14.121468,24.9075132 13.6722156,24.1617031 C13.2229631,23.4158931 12.881864,22.5401948 12.6489183,21.5346082 L10.4276146,21.5346082 L11.2762025,19.1212004 L12.3494167,19.1212004 L12.3494167,18.5681277 L12.3494167,17.9647758 L10.4276146,17.9647758 L11.2762025,15.5513679 L12.6738768,15.5513679 C12.9068225,14.5457814 13.2520813,13.6658931 13.7096533,12.9117031 C14.1672252,12.1575132 14.707992,11.5290216 15.3319537,11.0262283 C15.9559155,10.523435 16.6422734,10.15053 17.3910274,9.9075132 C18.1397815,9.66449644 18.9218135,9.54298806 19.7371235,9.54298806 C20.3361268,9.54298806 20.9184911,9.61002717 21.4842164,9.74410538 C22.0499417,9.87818359 22.5865488,10.0834909 23.0940376,10.3600272 C23.6015265,10.6365635 24.0632582,10.9843288 24.4792327,11.4033233 C24.8952071,11.8223177 25.2446257,12.325111 25.5274884,12.9117031 L22.4076797,14.8223177 C22.1414561,14.3865635 21.7753985,14.0136585 21.3095071,13.7036026 C20.8436157,13.3935467 20.2945293,13.2468987 19.6622481,13.2636585 C19.0299669,13.2804182 18.4559221,13.4731557 17.9401138,13.8418707 C17.4243054,14.2105858 17.0166504,14.7804182 16.7171488,15.5513679 L21.5091748,15.5513679 L20.5857115,17.9647758 L16.2678963,17.9647758 L16.2678963,18.5429881 L16.2678963,19.1212004 L20.2113344,19.1212004 L19.337788,21.5346082 L16.7171488,21.5346082 C17.0166504,22.3223177 17.4284651,22.90053 17.952593,23.269245 C18.4767208,23.6379601 19.0632449,23.8223177 19.7121651,23.8223177 C20.4941971,23.8223177 21.1223186,23.5960607 21.5965295,23.1435467 C22.0707404,22.6910328 22.4326382,22.1882395 22.6822229,21.6351668 L25.8519485,23.269245 Z" id="Path" fill="#FFFFFF" fill-rule="nonzero"></path>
                            </g>
                        </g>
                        <g id="Character__With_Cap" transform="translate(86.000000, 0.000000)" fill-rule="nonzero">
                            <g id="g18" transform="translate(39.500000, 2.000000) scale(-1, 1) rotate(-180.000000) translate(-39.500000, -2.000000) translate(37.000000, 0.000000)" fill="#C5569A">
                                <path d="M0.014719618,2.42215649 C0.16326055,3.50171191 1.39607086,4.18757828 2.76868439,3.9545426 C4.14129793,3.72150693 5.13382143,2.65739894 4.9852805,1.57784351 C4.83673957,0.498288087 3.60353209,-0.18757828 2.23091856,0.0454573969 C0.858702189,0.278493074 -0.133821314,1.34260106 0.014719618,2.42215649" id="path20"></path>
                            </g>
                            <g id="g22" transform="translate(37.000000, 119.500000) scale(-1, 1) rotate(-180.000000) translate(-37.000000, -119.500000) translate(17.000000, 79.000000)" fill="#FF9100">
                                <path d="M36.3191132,59.5839627 C36.4764902,62.8293428 36.6032661,66.0400129 36.6863262,69.1639081 C32.8568193,69.7422626 28.3628318,71.7150892 23.2043636,75.081954 C16.813109,79.2601639 11.0382476,80.6745942 6.64917804,81 C3.75956155,63.0983448 6.74098129,22.6525791 8.09617208,6.69034228 L6.72786654,6.69034228 C3.01202082,6.69034228 0,3.7009481 0,0.0130162301 L17.2021799,0.0130162301 L19.9519057,62.3043548 C20.024474,63.3417484 20.9307032,64.1248915 21.9759487,64.0528684 C23.0211943,63.9808453 23.810265,63.0814238 23.7376968,62.0440302 L22.7628337,0 L40,0 C40.0074179,3.68793187 37.0010802,6.68296641 33.2852345,6.69034228 C33.2764913,6.69034228 33.2677481,6.69034228 33.259005,6.69034228 L31.94753,6.69034228 C32.6207538,12.8643741 33.6480759,22.7653865 34.5704799,33.9810381 L36.3191132,59.5839627 Z" id="path24"></path>
                            </g>
                            <g id="g26" transform="translate(37.000000, 19.000000) scale(-1, 1) rotate(-180.000000) translate(-37.000000, -19.000000) translate(22.000000, 4.000000)" fill="#FDC92A">
                                <path d="M10.1783984,6.44253999 C7.60736669,6.75500861 5.77665926,9.09262352 6.08913379,11.6636066 C6.09044488,11.6710359 6.09131893,11.6789023 6.09219299,11.6867686 L15.3965046,10.5505191 C15.0945187,7.98084705 12.7664742,6.14274492 10.1967535,6.44472508 C10.1906352,6.44559912 10.1845168,6.44603614 10.1783984,6.44691018 L10.1783984,6.44253999 Z M16.8124731,29.8886121 C8.58936708,30.8893858 1.11226671,25.0350785 0.11147415,16.8121281 C-0.889755434,8.58961459 4.96509953,1.11221861 13.1877685,0.111444984 C21.4082523,-0.889328645 28.8840416,4.96148242 29.8883304,13.1813738 C30.890434,21.4056353 25.0364531,28.8852164 16.8124731,29.8886121" id="path28"></path>
                            </g>
                            <g id="g34" transform="translate(37.500000, 9.500000) scale(-1, 1) rotate(-180.000000) translate(-37.500000, -9.500000) translate(23.000000, 2.000000)" fill="#D28AC5">
                                <path d="M16.3896046,14.8423505 C7.65832834,15.9840698 1.69412822,10.7994715 0,3.33995488 L29,0 C29,7.46803687 27.8445177,13.3385188 16.3896046,14.8423505" id="path36"></path>
                            </g>
                            <g id="g38" transform="translate(31.500000, 14.500000) scale(-1, 1) rotate(-180.000000) translate(-31.500000, -14.500000) translate(14.000000, 11.000000)" fill="#C5569A">
                                <path d="M20.0463,0.568220973 C11.0382051,3.99268971 2.69073306,1.08759169 0.358865858,1.88142662 C0.0604918563,2.00261312 -0.0795076754,2.33450368 0.0460544046,2.62247996 C0.105554206,2.75886756 0.217553831,2.86696423 0.358865858,2.92439058 L5.63072323,5.1201042 C5.63072323,5.1201042 8.76758774,6.48820268 9.23571117,6.55998563 C18.0425567,7.90697148 24.9244087,6.13773301 35,1.57740473 C35,1.57740473 24.5744099,-1.15034718 20.0463,0.568220973" id="path40"></path>
                            </g>
                            <g id="Group-5" transform="translate(39.500000, 60.500000) scale(-1, 1) translate(-39.500000, -60.500000) translate(0.000000, 36.000000)">
                                <path d="M11,4.91950562 C11,4.91950562 10.8367511,7.95889972 9.88471998,9.79363711 C8.93218032,11.6278606 8.76486289,12.8052789 8.56601452,14.1404743 C8.39513714,15.2870567 8.14950091,15.8138371 7.83470003,15.9772674 C7.51989915,16.1406978 6.23170751,15.4145119 6.24035309,14.0700656 C6.24899867,12.7261333 6.98895873,10.5424361 6.6161816,10.2052967 C6.24391303,9.86815726 3.75703693,10.9165786 2.60463177,10.8364052 C1.45273517,10.7562318 0.0119744405,9.88614488 0.0185857675,9.28792798 C0.024688531,8.68971109 0.343049357,8.25441065 0.343049357,8.25441065 C0.343049357,8.25441065 0.0211285856,7.72249098 0.000786040842,7.25738248 C-0.0190479403,6.79278792 0.343049357,5.94634184 0.343049357,5.94634184 C0.343049357,5.94634184 0.0455396393,5.32910946 0.168103472,4.91231057 C0.29015874,4.49551169 1.02808455,4.05507193 1.02808455,4.05507193 C1.02808455,4.05507193 0.523080878,3.49231634 0.679718473,2.9639942 C0.835847504,2.43567206 1.95011039,1.66014861 4.31086271,0.881027634 C6.67161504,0.101906658 8.69722393,-0.15917082 9.23833562,0.0926558812 C9.77893875,0.34396865 11,4.91950562 11,4.91950562" id="path52" fill="#FFC800" transform="translate(5.500000, 8.000000) scale(1, -1) translate(-5.500000, -8.000000) "></path>
                                <path d="M7,11.8477465 L7.58341992,8 L14,12.9093772 C14,12.9093772 12.2050616,17.600166 10.9062639,20.533386 C9.77111474,23.096778 7.95955173,14.2628529 7.95955173,14.2628529 L7,11.8477465 Z" id="path56" fill="#FFC800" transform="translate(10.500000, 14.500000) scale(1, -1) translate(-10.500000, -14.500000) "></path>
                                <path d="M59.2995258,18.9637804 C59.2995258,18.9637804 57.4068858,19.6205086 53.914875,19.1578137 C53.9667492,25.2912226 55.5835826,30.7730501 57.2276371,34.7473879 L68.1587249,27.6330041 L59.2995258,18.9637804 Z M78.985037,28.9721944 C78.8679347,30.5476215 78.0862255,32.0000407 76.83508,32.9635165 L59.1089778,46.6827535 C56.6323671,48.5999263 53.461874,49.378633 50.381262,48.8263843 L49.2179432,48.6174254 L49.185586,48.6117639 C49.0130142,43.6492458 44.9704172,39.6718199 39.9761073,39.6718199 C36.172851,39.6718199 32.9114495,41.977574 31.4938955,45.2673911 C29.7096264,44.9292481 28.1277183,44.0640756 26.8791408,42.8561281 L26.8606509,42.8787739 L15.5361405,30.9418642 L13.4883913,36.3006839 L7,32.8420527 L9.19053185,19.7435164 C9.80223723,17.875238 11.3548698,16.4706837 13.2716493,16.0501924 C13.665072,15.9642413 14.0641442,15.9215231 14.4575668,15.9215231 C15.9809238,15.9215231 17.4590834,16.5520027 18.5207081,17.6971596 L18.8637973,18.0672126 L24.7748948,26.5032876 C24.7748948,26.5032876 23.5109092,10.3696995 23.4369498,1 C24.9849599,1.00823484 26.0809962,1.1538885 26.0809962,1.1538885 C28.4677258,1.71179865 31.773811,3.09319241 36.1944224,6.01450054 C42.2488162,10.0156016 48.3617612,11.866381 52.584634,12.5246532 C56.8075069,13.1824107 60.5696748,12.7547139 62.1089536,12.582297 C63.6482323,12.4103948 64.7185883,13.3779881 64.7185883,13.3779881 L77.4493534,24.7055199 C78.5428217,25.843986 79.1005984,27.3962526 78.985037,28.9721944" id="path60" fill="#8ACDC3" transform="translate(43.000000, 25.000000) scale(1, -1) translate(-43.000000, -25.000000) "></path>
                            </g>
                        </g>
                    </g>
                </g>
            </g>
        </g>
    </g>
</svg>