<?xml version="1.0" encoding="UTF-8"?>
<svg width="138px" height="160px" viewBox="0 0 138 160" version="1.1" xmlns="http://www.w3.org/2000/svg" xmlns:xlink="http://www.w3.org/1999/xlink">
    <title>Group 3</title>
    <g id="✔️-Desktop-Final" stroke="none" stroke-width="1" fill="none" fill-rule="evenodd">
        <g id="Investment-Tool---Step-3" transform="translate(-731.000000, -684.000000)" fill-rule="nonzero">
            <g id="Group-12" transform="translate(170.000000, 522.000000)">
                <g id="Group-11" transform="translate(40.000000, 84.000000)">
                    <g id="Character__Man_woman_Business_1" transform="translate(521.000000, 78.000000)">
                        <g id="g10" transform="translate(32.000000, 82.000000) scale(-1, 1) rotate(-180.000000) translate(-32.000000, -82.000000) translate(0.000000, 6.000000)">
                            <g id="g18" transform="translate(0.000000, 0.000000)" fill="#FDC92A">
                                <path d="M35.1100334,70.2831415 L3.13310178,72.513081 C2.81433908,61.2031986 5.29313848,18.5814243 6.80726129,6.56757239 L6.52624681,6.56757239 C2.92129235,6.56504315 0,3.6273402 0,0.00421538664 L15.9381349,0.00421538664 L17.9723442,55.8370114 C18.0214169,56.8786335 18.9013697,57.6833508 19.9381873,57.6340308 C20.9062193,57.5880831 21.6804771,56.8099227 21.7261944,55.8370114 L22.8754178,0 L38.8135527,0 C38.8135527,3.62481097 35.8897438,6.563357 32.2831116,6.563357 L32.2831116,6.563357 L31.9182122,6.563357 C32.6522053,12.2667751 34.9632348,66.6452628 35.1100334,70.2831415" id="path20"></path>
                            </g>
                            <g id="g22" transform="translate(14.243337, 122.489549)" fill="#8ACDC3">
                                <path d="M19.7510266,10.9990994 C20.0488181,8.46607361 18.24697,6.17037405 15.7266475,5.8710816 C13.2063251,5.57178915 10.9221387,7.38271925 10.6243473,9.91574508 L19.7510266,10.9990994 Z M16.3956298,0.102324978 C24.4477433,1.05373774 30.2077013,8.38555973 29.26106,16.478259 C28.3139993,24.5705367 21.0193666,30.3595272 12.9672531,29.4081144 C4.91513958,28.4567017 -0.844818478,21.1248797 0.101822849,13.032602 C0.103081123,13.0233281 0.103919972,13.0144758 0.105178246,13.0056235 C1.06524116,4.92514883 8.35400189,-0.847823171 16.3956298,0.102324978" id="path24"></path>
                            </g>
                            <g id="g26" transform="translate(14.335680, 130.057324)" fill="#31A3AE">
                                <path d="M10.2132418,21.2329025 C2.52644709,18.8002029 -1.74287593,10.5654451 0.677623448,2.83990598 C0.987158804,1.85224089 1.39945319,0.900406587 1.90863465,0 C2.18964914,2.60932433 3.06205231,6.18818759 5.59537691,8.61625029 C9.90286757,12.7388984 16.3284525,11.7820057 19.713209,12.4100983 C21.8766011,12.8173046 23.9426867,13.6371973 25.79906,14.8255148 L26.6756574,15.4915459 C23.0514094,20.8484592 16.3599093,23.1820973 10.2132418,21.2329025" id="path28"></path>
                            </g>
                            <g id="g30" transform="translate(23.450029, 109.077345)" fill="#C5569A">
                                <path d="M5.31410971,0 L4.11455534,3.79384798 C5.55527885,4.24953127 6.35554099,5.79278432 5.902143,7.24076963 C5.448745,8.68833341 3.91323154,9.49305072 2.47250803,9.03694588 C1.03178452,8.58126259 0.23152238,7.03843107 0.684920375,5.59044576 C0.893374402,4.92483621 1.34593355,4.36418979 1.9503244,4.02147886 L0,0.56486181" id="path32"></path>
                            </g>
                            <g id="g34" transform="translate(49.169146, 77.413443)" fill="#8ACDC3">
                                <path d="M6.76951307,0.942163763 C4.64722459,-0.444698442 0.478144046,0.0611479546 0,0.22976342 L0.0461367062,7.39592071 C1.0485615,8.79542908 11.0560325,9.35186011 10.791795,6.4853972 C10.5736942,4.12899606 9.22734124,2.54401069 6.76951307,0.942163763" id="path36"></path>
                            </g>
                            <g id="g38" transform="translate(3.750728, 77.643207)" fill="#D28AC5">
                                <path d="M33.368349,19.820748 C33.4270684,20.4614868 34.0813708,20.5331483 34.2365579,19.7828095 L35.5283857,10.9979437 L32.5546653,12.0054212 C32.7098524,15.2006842 33.368349,19.820748 33.368349,19.820748 M0.00731616242,28.9639216 C0.00731616242,28.8669677 0.0324816385,28.7742292 0.0408701306,28.6772753 C0.0408701306,28.5044445 0.0786183447,28.3316136 0.112172313,28.1672135 C0.112172313,28.0829058 0.149920527,28.0028135 0.166697511,27.9227211 C0.208639971,27.7456749 0.246388185,27.5686286 0.296719138,27.3957978 L0.359632828,27.2061054 C0.418352272,27.0206284 0.481265963,26.8351514 0.552568145,26.6581051 C0.552568145,26.6159513 0.586122113,26.5780128 0.602899097,26.5358589 C0.682589771,26.3419511 0.766474692,26.1480433 0.854553858,25.9667817 C0.854553858,25.9457048 0.875525088,25.9246278 0.888107826,25.9077663 C0.984575485,25.7054277 1.08943164,25.4862276 1.19428779,25.3218276 C1.71059947,24.4180487 2.34057522,23.5846667 3.06911576,22.8431802 C3.06911576,22.8431802 11.3569459,13.5693296 14.2929181,10.336128 C17.2288903,7.10292649 18.6759052,6.79098788 18.6759052,6.79098788 L45.4184178,0 L46.1985476,7.61720366 L44.3237196,8.03874232 L44.2188634,12.1403135 C43.4471222,33.3521391 43.2751581,32.9306004 39.6051928,35.6537402 C38.6950414,36.3029098 32.2568738,39.1651573 32.2568738,39.1651573 C31.8366103,34.5771305 27.7954543,31.2001842 23.2308564,31.622566 C23.1369053,31.6309967 23.0433736,31.6415352 22.9498419,31.6533383 L21.809007,31.7713691 C19.0278024,32.0335662 16.5544556,33.6581762 15.1988752,36.1132174 C14.3579289,37.712535 14.0173561,39.5302098 14.2216159,41.3276506 L11.0507659,41.6648816 C9.29757109,41.854574 6.08897289,41.6648816 3.86182825,39.1356496 C2.66227389,37.5253719 1.92408659,36.0204788 0.351244336,31.4889382 C0.253518404,31.214095 0.176763702,30.9320856 0.120560805,30.6458609 C0.120560805,30.5531224 0.120560805,30.4603839 0.0828125908,30.3676454 C0.0576471146,30.177953 0.0282873925,29.992476 0.0157046545,29.8027836 L0.0157046545,29.4992757 C-0.00107232962,29.3095833 -0.00526657564,29.1325371 0.00731616242,28.9639216" id="path40"></path>
                            </g>
                            <g id="g42" transform="translate(3.305066, 74.873698)" fill="#D28AC5">
                                <path d="M31.9727374,2.62197049 L18.6056753,6.03221828 C17.4145095,6.3736646 15.3886886,7.1619419 12.5827381,10.3782819 C9.9529458,13.3922834 1.34215873,22.7293648 1.25827381,22.8178879 L0,2.46600119 L31.9433777,0 C31.9056295,1.04541589 31.9266007,1.39950836 31.9727374,2.62197049" id="path44"></path>
                            </g>
                            <g id="g46" transform="translate(40.407366, 68.234464)" fill="#D28AC5">
                                <polyline id="path48" points="7.50770037 0.130676986 7.92712498 6.75726479 7.92712498 6.77412633 0 8.78908115 0 8.78065037 1.41765515 0"></polyline>
                            </g>
                            <g id="g50" transform="translate(39.414035, 61.477305)" fill="#8ACDC3">
                                <path d="M2.2725766,2.50804843 C-1.42674839,-3.29653897 -0.0426472062,5.56841913 2.41098671,6.75715817 L6.99949186,6.85411206 C8.0144994,5.82134233 7.67476547,2.81577166 6.60523273,0.918847669 C1.20723811,-1.57666122 3.97124623,1.71555574 2.2725766,2.50804843" id="path52"></path>
                            </g>
                            <g id="g54" transform="translate(36.267645, 55.710550)" fill="#257886">
                                <path d="M17.6493872,0 L15.4725736,0 C15.4746707,3.69014947 12.499692,6.68307398 8.82804902,6.68476014 C5.15640606,6.68686783 2.17891081,3.69689408 2.17681368,0.00674461863 L2.17681368,0 L0,0 C0,4.89827928 3.95097975,8.86917349 8.82469362,8.86917349 C13.6984075,8.86917349 17.6493872,4.89827928 17.6493872,0" id="path56"></path>
                            </g>
                            <g id="g58" transform="translate(26.180484, 30.076784)" fill="#FF9100">
                                <path d="M18.9118553,17.5107161 C17.6099613,17.5107161 16.554689,18.5713074 16.554689,19.8797634 C16.554689,21.1882194 17.6099613,22.2488107 18.9118553,22.2488107 C20.2137493,22.2488107 21.2690216,21.1882194 21.2690216,19.8797634 C21.2690216,18.5713074 20.2137493,17.5107161 18.9118553,17.5107161 M34.4641195,25.6337662 L3.35539681,25.6337662 C1.50237892,25.6337662 0,24.1238147 0,22.2614569 L0,3.37230931 C0,1.50995149 1.50237892,0 3.35539681,0 L34.4641195,0 C36.3171374,0 37.8195164,1.50995149 37.8195164,3.37230931 L37.8195164,22.2614569 C37.8195164,24.1238147 36.3171374,25.6337662 34.4641195,25.6337662" id="path60"></path>
                            </g>
                            <g id="g62" transform="translate(41.485287, 58.076471)" fill="#8ACDC3">
                                <path d="M6.42977915,10.2886693 C7.44478668,9.25168422 9.96972279,2.04758845 3.54413789,0.112725979 C0.255849007,-0.877889881 1.69866964,4.964636 0,5.75712869 L1.7406121,10.1875001 L6.42977915,10.2886693 Z" id="path64"></path>
                            </g>
                        </g>
                        <g id="g66" transform="translate(95.000000, 80.000000) scale(-1, 1) rotate(-180.000000) translate(-95.000000, -80.000000) translate(52.000000, 0.000000)">
                            <g id="g74" transform="translate(20.285556, 122.832308)" fill="#FDC92A">
                                <path d="M15.8420921,10.4659152 C16.0487559,7.94329214 14.1820606,5.73024263 11.6731113,5.52245248 C9.16416191,5.31466234 6.96310806,7.19153105 6.75644422,9.71415409 L15.8420921,10.4659152 Z M29.1198234,15.8676143 C28.4590872,23.93891 21.4157149,29.9428626 13.3881691,29.2785254 C5.36062324,28.6137659 -0.610785451,21.5324298 0.0499507531,13.4611341 C0.711107005,5.38983845 7.75447933,-0.614114209 15.7816051,0.0502229829 C15.7849655,0.0506453206 15.7883259,0.0506453206 15.7916863,0.0510676583 C23.8146116,0.720895241 29.7805596,7.800542 29.1198234,15.8676143" id="path76"></path>
                            </g>
                            <g id="g78" transform="translate(21.375547, 133.011033)" fill="#FF9100">
                                <path d="M14.9495242,19.0769936 C22.9657287,18.2656829 28.8102827,11.0741167 28.0033697,3.01380178 C27.9008779,1.99005521 27.6916937,0.97982345 27.3787576,0 C26.5722646,2.49601577 24.997083,5.81559004 22.02314,7.6738759 C16.9825586,10.8287385 10.8792547,8.57345518 7.44745893,8.48476427 C5.24682513,8.44126349 3.05837273,8.82094507 0.999715299,9.60395916 L0,10.072754 C2.45686335,16.0657259 8.53496435,19.726549 14.9495242,19.0769936" id="path80"></path>
                            </g>
                            <g id="g82" transform="translate(36.216392, 150.829461)" fill="#FF9100">
                                <path d="M10.0974312,0 C10.6976804,0.395308081 11.1765357,0.951104487 11.4793906,1.60488324 C12.5589151,4.00798471 10.9375281,7.09527326 7.85437253,8.48898765 C4.77121694,9.88270204 1.40242841,9.07181366 0.322903908,6.66871219 C-0.0286766405,5.84895472 -0.0954643432,4.93374894 0.133882108,4.07133537 C3.81938716,3.89564289 7.3347726,2.45927239 10.0974312,0" id="path84"></path>
                            </g>
                            <g id="g86" transform="translate(17.401888, 0.000000)" fill="#8ACDC3">
                                <path d="M34.7338059,78.6054916 C30.6740377,79.1342584 26.5483219,78.4868147 22.8422344,76.738759 C17.4236095,74.2047328 12.025987,72.2281924 6.35953346,72.0930443 C5.36401864,55.4825028 6.55275574,22.2909835 7.87170786,6.57579789 L6.54015429,6.57579789 C2.92815771,6.57579789 0,3.63168183 0,0 L11.9545787,0 C12.2696151,2.49179239 13.4583522,6.71939271 17.6546361,8.29471231 L18.1796967,60.3773967 C18.2956301,61.3948082 19.2100755,62.1246077 20.2219722,62.0080425 C21.1704416,61.8986571 21.8790634,61.079322 21.8551206,60.1197707 L23.4345027,6.62647842 L22.1071497,6.57579789 C15.529191,6.30550177 15.2015532,0 15.2015532,0 L32.2513196,0 C32.0538968,12.4420685 36.867652,70.543065 34.7338059,78.6054916" id="path88"></path>
                            </g>
                            <g id="g90" transform="translate(0.000000, 79.039242)" fill="#FDC92A">
                                <path d="M5.06086515,0.208202997 C7.31232481,-0.535111344 10.8575337,0.930400453 11.2313768,1.1964732 L6.75366038,7.85251526 C4.30477794,8.04256722 -0.80721163,6.77133076 0.10849398,4.24575135 C0.86458118,2.17629665 2.47336672,1.06554852 5.06086515,0.208202997" id="path92"></path>
                            </g>
                            <g id="g94" transform="translate(62.188938, 62.100343)" fill="#FDC92A">
                                <path d="M2.12396121,2.28081515 C-0.421532371,-4.13449442 -0.723967251,4.84862833 1.46028466,6.50419209 L5.95900351,7.47134541 C7.15194109,6.62667002 7.38296774,3.62384902 6.6898878,1.55861769 C1.83832826,-1.96367867 3.94697146,1.82046706 2.12396121,2.28081515" id="path96"></path>
                            </g>
                            <g id="g98" transform="translate(58.226397, 55.786586)" fill="#C5569A">
                                <path d="M17.6756386,0 L15.4913866,0 C15.5837973,3.69587716 12.6787423,6.76711687 9.00289832,6.86003116 C5.32705438,6.95294545 2.27246209,4.03205796 2.18005143,0.336180804 C2.17711109,0.224261315 2.17711109,0.111919489 2.18005143,0 L0,0 C0,4.907564 3.95685635,8.88598508 8.83781928,8.88598508 C13.7187822,8.88598508 17.6756386,4.907564 17.6756386,0" id="path100"></path>
                            </g>
                            <g id="g102" transform="translate(48.124232, 30.104231)" fill="#D28AC5">
                                <path d="M18.9399844,17.5439078 C17.636154,17.5439078 16.5793121,18.6065094 16.5793121,19.9174456 C16.5793121,21.2283818 17.636154,22.2909835 18.9399844,22.2909835 C20.2438148,22.2909835 21.3006566,21.2283818 21.3006566,19.9174456 C21.3006566,18.6065094 20.2438148,17.5439078 18.9399844,17.5439078 Z M34.5153807,25.6823552 L3.36038756,25.6823552 C1.50461353,25.6823552 0,24.1695415 0,22.3036536 L0,3.37870155 C0,1.51281362 1.50461353,0 3.36038756,0 L34.5153807,0 C36.3711548,0 37.8757683,1.51281362 37.8757683,3.37870155 L37.8757683,22.3036536 C37.8757683,24.1695415 36.3711548,25.6823552 34.5153807,25.6823552" id="path104"></path>
                            </g>
                            <g id="g106" transform="translate(64.149080, 59.043051)" fill="#FDC92A">
                                <path d="M5.46903075,10.8284971 C6.66196834,9.98382174 10.5096121,3.39535371 4.54492417,0.270054779 C1.49957295,-1.33060508 1.81880977,4.68770706 0,5.14383177 L0.873700765,9.84022692 L5.46903075,10.8284971 Z" id="path108"></path>
                            </g>
                            <g id="g110" transform="translate(33.661147, 110.335723)" fill="#8ACDC3">
                                <path d="M5.3564342,0.071797408 L3.83165834,3.37870155 C5.21151748,3.98982419 5.83780971,5.60991159 5.22999961,6.99771325 C4.62218951,8.38509257 3.01046363,9.01437574 1.63060449,8.40325309 C0.250745347,7.79213045 -0.375546884,6.17204306 0.232263216,4.78466373 C0.507394947,4.15664758 1.0064125,3.65533274 1.63060449,3.37870155 L0.265447043,0" id="path112"></path>
                            </g>
                            <g id="g114" transform="translate(6.753660, 67.789423)" fill="#31A3AE">
                                <path d="M4.47771642,12.4462918 C9.22006337,14.4270556 10.7238368,15.2928479 11.3455085,15.6349414 C13.1727192,16.6358818 13.6599754,18.6377624 14.4076617,20.2510924 L17.4782158,27.7687034 L16.8859475,8.98734612 C16.8859475,8.98734612 21.0654295,8.79729416 31.3734184,13.366988 C36.9516617,15.8418869 41.0345326,15.8418869 44.7351594,15.5166869 C44.5877224,19.0094196 44.7112166,22.5084874 45.104802,25.9822149 L56.2528877,0 L63.6205375,1.22900269 L48.3097717,44.1089487 C47.6544961,46.3177749 45.5878577,49.4515206 43.6892388,49.7598271 C42.1728639,50.0090063 37.552331,50.1357076 37.552331,50.1357076 C37.63046,48.8720733 37.3570085,47.6113952 36.7626399,46.4951567 C35.4617499,44.0920552 32.9603614,42.5940234 30.2392876,42.588533 L28.9413379,42.588533 C26.6352719,42.5268717 24.4312777,43.5459726 22.9766499,45.3463982 C22.0630446,46.5466819 21.4300316,47.9378623 21.1242363,49.4177336 C21.1242363,49.4177336 18.3015107,48.8391309 17.6588366,48.682866 C12.9416926,47.496097 11.6815473,37.8456807 7.11982114,24.3984486 C6.6997727,23.1314355 6.27972425,22.6626407 5.09518764,22.0291341 L3.99046023,21.4758717 L0,19.1023339 L4.47771642,12.4462918 Z" id="path116"></path>
                            </g>
                        </g>
                    </g>
                </g>
            </g>
        </g>
    </g>
</svg>