<?xml version="1.0" encoding="UTF-8"?>
<svg width="200px" height="160px" viewBox="0 0 200 160" version="1.1" xmlns="http://www.w3.org/2000/svg" xmlns:xlink="http://www.w3.org/1999/xlink">
    <title>Group 16</title>
    <g id="✔️-Desktop-Final" stroke="none" stroke-width="1" fill="none" fill-rule="evenodd">
        <g id="Investment-Tool---Step-1" transform="translate(-700.000000, -684.000000)" fill-rule="nonzero">
            <g id="Group-12" transform="translate(170.000000, 522.000000)">
                <g id="Group-11" transform="translate(40.000000, 84.000000)">
                    <g id="Group-16" transform="translate(490.000000, 78.000000)">
                        <g id="Group-5" transform="translate(109.000000, 15.000000)">
                            <g id="g8" transform="translate(45.000000, 34.000000) scale(-1, 1) rotate(-180.000000) translate(-45.000000, -34.000000) translate(0.000000, 0.000000)">
                                <g id="g10" fill="#FB4F00">
                                    <polygon id="path12" points="87.1417718 46.0135959 73.5549309 44.1919533 77.3978119 40.5110026 49.4651269 11.8920389 28.4557818 32.9333803 0 4.43426154 4.42751861 0 28.4557818 24.0648572 49.5164109 2.97215368 81.9244796 36.1760411 85.9383072 32.3341558"></polygon>
                                </g>
                                <g id="g14" transform="translate(0.000000, 19.260789)" fill="#FDC92A">
                                    <polygon id="path16" points="90 48.7392114 72.7036165 46.4176444 78.1294636 41.2197996 49.4651269 11.8920389 28.4557818 32.9333803 0 4.43426154 4.42751861 0 28.4557818 24.0648572 49.5129919 2.97557782 82.6561313 36.8882622 88.464899 31.3274586"></polygon>
                                </g>
                            </g>
                            <g id="Group-14" transform="translate(45.275050, 111.500000) scale(-1, -1) translate(-45.275050, -111.500000) translate(0.000000, 81.000000)">
                                <g id="Group-4">
                                    <polygon id="path170" fill="#31A3AE" points="20.4972832 0 1.26702945 0 1.26702945 4.49409844 20.4972832 4.49409844"></polygon>
                                    <polygon id="path172" fill="#74CFC3" points="12.1001143 0 8.06945963 0 8.06945963 4.49409844 12.1001143 4.49409844"></polygon>
                                    <polygon id="path174" fill="#31A3AE" points="20.7788076 5.61694541 1.54855382 5.61694541 1.54855382 10.1110438 20.7788076 10.1110438"></polygon>
                                    <polygon id="path176" fill="#74CFC3" points="12.3819783 5.61694541 8.35132359 5.61694541 8.35132359 10.1110438 12.3819783 10.1110438"></polygon>
                                    <polygon id="path178" fill="#31A3AE" points="19.8534109 11.2711609 0.623157075 11.2711609 0.623157075 15.7652594 19.8534109 15.7652594"></polygon>
                                    <polygon id="path180" fill="#74CFC3" points="11.6304542 11.2711609 7.59979956 11.2711609 7.59979956 15.7652594 11.6304542 15.7652594"></polygon>
                                    <polygon id="path182" fill="#31A3AE" points="19.2302538 16.9257153 0 16.9257153 0 21.4198137 19.2302538 21.4198137"></polygon>
                                    <polygon id="path184" fill="#74CFC3" points="12.0573253 16.9257153 8.02667064 16.9257153 8.02667064 21.4198137 12.0573253 21.4198137"></polygon>
                                    <polygon id="path186" fill="#31A3AE" points="19.8534109 22.5799308 0.623157075 22.5799308 0.623157075 27.0740292 19.8534109 27.0740292"></polygon>
                                    <polygon id="path188" fill="#74CFC3" points="12.4913279 22.5799308 8.46067323 22.5799308 8.46067323 27.0740292 12.4913279 27.0740292"></polygon>
                                    <polygon id="path190" fill="#31A3AE" points="19.2302538 28.2344851 0 28.2344851 0 32.7285836 19.2302538 32.7285836"></polygon>
                                    <polygon id="path192" fill="#74CFC3" points="12.0573253 28.2344851 8.02667064 28.2344851 8.02667064 32.7285836 12.0573253 32.7285836"></polygon>
                                    <polygon id="path194" fill="#31A3AE" points="19.8534109 33.8887007 0.623157075 33.8887007 0.623157075 38.3827991 19.8534109 38.3827991"></polygon>
                                    <polygon id="path196" fill="#74CFC3" points="12.0573253 33.8887007 8.02667064 33.8887007 8.02667064 38.3827991 12.0573253 38.3827991"></polygon>
                                    <polygon id="path198" fill="#31A3AE" points="20.7788076 39.5429162 1.54855382 39.5429162 1.54855382 44.0370146 20.7788076 44.0370146"></polygon>
                                    <polygon id="path200" fill="#74CFC3" points="12.3819783 39.5429162 8.35132359 39.5429162 8.35132359 44.0370146 12.3819783 44.0370146"></polygon>
                                    <polygon id="path202" fill="#31A3AE" points="20.7788076 45.1974705 1.54855382 45.1974705 1.54855382 49.691569 20.7788076 49.691569"></polygon>
                                    <polygon id="path204" fill="#74CFC3" points="12.7935676 45.1974705 8.7629129 45.1974705 8.7629129 49.691569 12.7935676 49.691569"></polygon>
                                    <polygon id="path206" fill="#31A3AE" points="19.2302538 50.851686 0 50.851686 0 55.3457845 19.2302538 55.3457845"></polygon>
                                    <polygon id="path208" fill="#74CFC3" points="12.0573253 50.851686 8.02667064 50.851686 8.02667064 55.3457845 12.0573253 55.3457845"></polygon>
                                    <polygon id="path210" fill="#31A3AE" points="19.8534109 56.5059016 0.623157075 56.5059016 0.623157075 61 19.8534109 61"></polygon>
                                    <polygon id="path212" fill="#74CFC3" points="11.6304542 56.5059016 7.59979956 56.5059016 7.59979956 61 11.6304542 61"></polygon>
                                </g>
                                <polygon id="path234" fill="#31A3AE" points="48.0142432 0.281715508 28.7839894 0.281715508 28.7839894 4.77581394 48.0142432 4.77581394"></polygon>
                                <polygon id="path236" fill="#74CFC3" points="39.7912865 0.281715508 35.7606319 0.281715508 35.7606319 4.77581394 39.7912865 4.77581394"></polygon>
                                <polygon id="path238" fill="#31A3AE" points="47.3910861 5.93593103 28.1608323 5.93593103 28.1608323 10.4300295 47.3910861 10.4300295"></polygon>
                                <polygon id="path240" fill="#74CFC3" points="40.2181576 5.93593103 36.1875029 5.93593103 36.1875029 10.4300295 40.2181576 10.4300295"></polygon>
                                <polygon id="path242" fill="#31A3AE" points="48.0142432 11.5904854 28.7839894 11.5904854 28.7839894 16.0845838 48.0142432 16.0845838"></polygon>
                                <polygon id="path244" fill="#74CFC3" points="40.6521602 11.5904854 36.6215055 11.5904854 36.6215055 16.0845838 40.6521602 16.0845838"></polygon>
                                <polygon id="path246" fill="#31A3AE" points="47.3910861 17.2447009 28.1608323 17.2447009 28.1608323 21.7387993 47.3910861 21.7387993"></polygon>
                                <polygon id="path248" fill="#74CFC3" points="40.2181576 17.2447009 36.1875029 17.2447009 36.1875029 21.7387993 40.2181576 21.7387993"></polygon>
                                <polygon id="path250" fill="#31A3AE" points="48.0142432 22.8989164 28.7839894 22.8989164 28.7839894 27.3930149 48.0142432 27.3930149"></polygon>
                                <polygon id="path252" fill="#74CFC3" points="40.2181576 22.8989164 36.1875029 22.8989164 36.1875029 27.3930149 40.2181576 27.3930149"></polygon>
                                <polygon id="path254" fill="#31A3AE" points="48.9396399 28.5534708 29.7093861 28.5534708 29.7093861 33.0475692 48.9396399 33.0475692"></polygon>
                                <polygon id="path256" fill="#74CFC3" points="40.542471 28.5534708 36.5118163 28.5534708 36.5118163 33.0475692 40.542471 33.0475692"></polygon>
                                <g id="Group-9" transform="translate(55.009472, 0.000000)">
                                    <polygon id="path270" fill="#31A3AE" points="20.3971027 0.281715508 1.16684889 0.281715508 1.16684889 4.77581394 20.3971027 4.77581394"></polygon>
                                    <polygon id="path272" fill="#74CFC3" points="12.6010171 0.281715508 8.57036246 0.281715508 8.57036246 4.77581394 12.6010171 4.77581394"></polygon>
                                    <polygon id="path274" fill="#31A3AE" points="22.5406272 5.93593103 3.31037339 5.93593103 3.31037339 10.4300295 22.5406272 10.4300295"></polygon>
                                    <polygon id="path276" fill="#74CFC3" points="14.1434582 5.93593103 10.1128036 5.93593103 10.1128036 10.4300295 14.1434582 10.4300295"></polygon>
                                    <polygon id="path278" fill="#31A3AE" points="19.2302538 11.5904854 7.10542736e-15 11.5904854 7.10542736e-15 16.0845838 19.2302538 16.0845838"></polygon>
                                    <polygon id="path280" fill="#74CFC3" points="11.2446742 11.5904854 7.21401948 11.5904854 7.21401948 16.0845838 11.2446742 16.0845838"></polygon>
                                    <g id="Group-15" transform="translate(20.540627, 0.000000)">
                                        <g id="g282" fill="#31A3AE">
                                            <polygon id="path284" points="11.9756184 0 0 13.144327 3.02438165 16 15 2.85567296"></polygon>
                                        </g>
                                        <g id="g286" transform="translate(4.000000, 5.000000)" fill="#74CFC3">
                                            <polygon id="path288" points="2.7211733 0 0 2.9461686 3.2788267 6 6 3.0538314"></polygon>
                                        </g>
                                    </g>
                                </g>
                            </g>
                        </g>
                        <g id="Character__Woman_Business_1" transform="translate(44.615385, 80.000000) scale(-1, 1) translate(-44.615385, -80.000000) translate(0.000000, 0.000000)">
                            <g id="g18" transform="translate(37.476923, 118.666667) scale(-1, 1) rotate(-180.000000) translate(-37.476923, -118.666667) translate(16.953846, 77.333333)" fill="#D28AC5">
                                <path d="M37.2690105,60.8099702 C37.4260177,64.1221276 37.5561093,67.3988609 37.6458277,70.5870338 C33.7161631,71.1803882 29.0911812,73.1862803 23.8067692,76.6268502 C17.2528424,80.8910315 11.3224582,82.3345653 6.81859605,82.6666667 C3.85340395,64.3966647 6.91280034,23.1186816 8.30792098,6.82800364 L6.9038285,6.82800364 C3.09079781,6.82800364 0,3.77709929 0,0.0132840538 L17.6476032,0.0132840538 L20.4737318,63.5863374 C20.5481981,64.6450765 21.478129,65.4443337 22.5507121,65.3708286 C23.6232952,65.2973235 24.4330034,64.3793954 24.3585372,63.3206563 L23.3536915,0 L41.0461538,0 C41.0461538,3.76381524 37.955356,6.81471959 34.1423253,6.81471959 L34.1423253,6.81471959 L32.7965498,6.81471959 C33.4918672,13.1157891 34.546058,23.220526 35.4881009,34.6669523 L37.2690105,60.8099702 Z" id="path20"></path>
                            </g>
                            <g id="g22" transform="translate(37.476923, 16.000000) scale(-1, 1) rotate(-180.000000) translate(-37.476923, -16.000000) translate(22.307692, 0.888889)" fill="#D28AC5">
                                <path d="M10.2930649,6.48980658 C7.69573407,6.8041479 5.84573803,9.15686502 6.16173114,11.7442375 C6.16305699,11.7539231 6.16394089,11.7631684 6.16526673,11.772854 L15.5743484,10.6281937 C15.2663103,8.03729922 12.9085156,6.1855911 10.3076492,6.4924481 C10.3027877,6.49288835 10.2979263,6.49376886 10.2930649,6.49420912 L10.2930649,6.48980658 Z M17.0062612,30.1094311 C8.69100189,31.1202542 1.12793877,25.2243733 0.113225221,16.9409951 C-0.901488326,8.65761704 5.01708476,1.12355115 13.3323441,0.112728078 C21.6462775,-0.897654742 29.2088987,4.99646517 30.2249381,13.2785225 C31.2409775,21.5614604 25.3237303,29.096847 17.0089129,30.1089909 C17.008029,30.1094311 17.0071451,30.1094311 17.0062612,30.1094311" id="path24"></path>
                            </g>
                            <g id="g26" transform="translate(58.000000, 13.777778) scale(-1, 1) rotate(-180.000000) translate(-58.000000, -13.777778) translate(51.753846, 2.666667)" fill="#8ACDC3">
                                <path d="M2.96812342,3.36742608 C5.0698167,9.67751296 3.95633392,16.6461953 0,21.9404445 C2.77170349,22.5976986 5.64816427,22.1461159 7.63418803,20.1519979 C10.9820567,16.7986604 9.999957,12.9266734 8.76032898,7.36460433 C7.38975434,1.21681898 12.4923077,2.18258017 12.4923077,2.18258017 C12.4923077,2.18258017 6.59097995,-3.44208453 2.96812342,3.36742608" id="path28"></path>
                            </g>
                            <g id="g30" transform="translate(38.369231, 10.666667) scale(-1, 1) rotate(-180.000000) translate(-38.369231, -10.666667) translate(24.092308, 0.000000)" fill="#8ACDC3">
                                <path d="M16.2479052,21.0603068 C24.4520617,19.4785433 29.8420299,11.4335061 28.2864263,3.09138418 C28.0890012,2.03119938 27.7818466,0.994763428 27.3706913,0 C26.7625517,2.6885498 25.4316953,6.27328288 22.5232013,8.51374105 C17.5919819,12.2777108 11.0963453,10.4808633 7.54005038,10.7093901 C5.26349279,10.8644298 3.03761352,11.462184 0.98271843,12.4703902 L0,13.0529093 C3.08300365,19.0770532 9.68704777,22.3319909 16.2479052,21.0603068" id="path32"></path>
                            </g>
                            <g id="g34" transform="translate(67.815385, 90.222222) scale(-1, 1) rotate(-180.000000) translate(-67.815385, -90.222222) translate(64.246154, 86.222222)" fill="#FDC92A">
                                <path d="M2.14288481,2.44353723 C-0.425288048,-4.42857295 -0.730417497,5.1923813 1.47329519,6.96466235 L6.00785784,8 C7.211424,7.09577498 7.4487469,3.88125502 6.745254,1.67042483 C1.854707,-2.10019351 3.97789942,1.95073459 2.14288481,2.44353723" id="path36"></path>
                            </g>
                            <g id="g38" transform="translate(69.153846, 95.555556) scale(-1, 1) rotate(-180.000000) translate(-69.153846, -95.555556) translate(59.784615, 90.666667)" fill="#257886">
                                <path d="M18.7384615,-3.09494341e-16 L16.4245219,-3.09494341e-16 C16.5224193,4.0658272 13.4448795,7.44449196 9.55078604,7.54670679 C5.65669255,7.64892162 2.4207369,4.43565904 2.32283945,0.369831842 C2.31972453,0.246709432 2.31972453,0.12312241 2.32283945,-3.09494341e-16 L0,-3.09494341e-16 C0,5.40019535 4.19268071,9.77777778 9.36478089,9.77777778 C14.5368811,9.77777778 18.7295618,5.40019535 18.7295618,-3.09494341e-16 L18.7384615,-3.09494341e-16 Z" id="path40"></path>
                            </g>
                            <g id="g42" transform="translate(69.153846, 113.777778) scale(-1, 1) rotate(-180.000000) translate(-69.153846, -113.777778) translate(49.076923, 100.444444)" fill="#8ACDC3">
                                <path d="M20.0702434,18.2163021 C18.6879928,18.2163021 17.567586,19.3196294 17.567586,20.6808091 C17.567586,22.0419887 18.6879928,23.145316 20.0702434,23.145316 C21.452494,23.145316 22.5729008,22.0419887 22.5729008,20.6808091 C22.5706742,19.3205065 21.4516034,18.2184948 20.0702434,18.2163021 M36.5824383,26.6666667 L3.5625016,26.6666667 C1.59511009,26.6666667 7.2876178e-15,25.0958724 7.2876178e-15,23.1584717 L7.2876178e-15,3.50819492 C7.2876178e-15,1.57079428 1.59511009,0 3.5625016,0 L36.5913446,0 C38.5587361,0 40.1538462,1.57079428 40.1538462,3.50819492 L40.1538462,23.1584717 C40.1538462,25.0958724 38.5587361,26.6666667 36.5913446,26.6666667 C36.5882274,26.6666667 36.5855555,26.6666667 36.5824383,26.6666667" id="path44"></path>
                            </g>
                            <g id="g46" transform="translate(70.046154, 91.555556) scale(-1, 1) rotate(-180.000000) translate(-70.046154, -91.555556) translate(66.030769, 86.222222)" fill="#FDC92A">
                                <path d="M5.64052114,10.6666667 C6.90885686,9.81337773 10.7272619,1.28048836 4.8366464,0.0730845143 C1.26386974,-0.673543306 1.93823133,4.53578565 0,4.99656168 L0.933387901,9.74084817 C2.80462967,10.1205617 5.64052114,10.6666667 5.64052114,10.6666667" id="path48"></path>
                            </g>
                            <g id="g50" transform="translate(35.692308, 61.333333) scale(-1, 1) rotate(-180.000000) translate(-35.692308, -61.333333) translate(0.000000, 34.666667)" fill="#FF9100">
                                <path d="M42.0849182,34.7440433 C40.5063204,34.7440433 39.2268441,36.0208703 39.2268441,37.5961993 C39.2268441,39.1715283 40.5063204,40.4483553 42.0849182,40.4483553 C43.6635159,40.4483553 44.9429922,39.1715283 44.9429922,37.5961993 C44.9403294,36.0235276 43.6608531,34.7502436 42.0849182,34.7529009 L42.0849182,34.7529009 L42.0849182,34.7440433 Z M20.2721324,22.7862464 L11.1387218,31.6837331 L22.3979359,38.9779892 C24.5459295,33.9154123 25.7073549,28.4910013 25.8196364,22.9944006 C22.2337298,23.437282 20.2721324,22.7862464 20.2721324,22.7862464 M71.3846154,2.48013566 L55.9092982,44.6955876 C54.9653349,47.2448128 52.7339069,49.1000428 50.0511339,49.5672827 L48.9327571,49.7621505 C46.865979,44.9537875 41.2847462,42.7278657 36.4664061,44.7903643 C33.1889407,46.1934124 30.9757085,49.3112973 30.736944,52.8623201 L28.8596686,53.1856235 C25.878218,53.6807648 22.824428,52.9190089 20.4274625,51.081937 L2.23164931,37.1223163 C-0.269609299,35.204197 -0.739150039,31.6257156 1.18339295,29.1296362 C1.31209505,28.962227 1.45011695,28.801904 1.59701485,28.6499957 L14.6891243,17.0553615 C15.3508306,16.4291272 16.2544081,16.1248677 17.1610921,16.2227445 C19.8460841,16.6301954 22.5723494,16.6957418 25.273762,16.4176123 C31.3360744,15.8285801 37.8377491,13.6053156 44.0775816,9.49980534 C48.9194431,6.31548831 52.3544576,4.96027132 54.7287893,4.45538656 C54.9240615,11.8515054 54.284989,21.0501514 54.284989,21.0501514 L64.3947603,0 L71.3846154,2.48013566 Z" id="path52"></path>
                            </g>
                        </g>
                    </g>
                </g>
            </g>
        </g>
    </g>
</svg>