<?xml version="1.0" encoding="UTF-8"?>
<svg width="144px" height="160px" viewBox="0 0 144 160" version="1.1" xmlns="http://www.w3.org/2000/svg" xmlns:xlink="http://www.w3.org/1999/xlink">
    <title>Scene_Lots_of_Experience</title>
    <g id="✔️-Desktop-Final" stroke="none" stroke-width="1" fill="none" fill-rule="evenodd">
        <g id="Investment-Tool---Step-4" transform="translate(-728.000000, -684.000000)" fill-rule="nonzero">
            <g id="Group-12" transform="translate(170.000000, 522.000000)">
                <g id="Group-11" transform="translate(40.000000, 84.000000)">
                    <g id="Scene_Lots_of_Experience" transform="translate(518.000000, 78.000000)">
                        <g id="g8" transform="translate(72.000000, 80.000000) scale(-1, 1) rotate(-180.000000) translate(-72.000000, -80.000000) ">
                            <g id="g68" transform="translate(0.000000, -0.000000)">
                                <polygon id="path74" fill="#BBEAD9" points="36.7067551 0.507715363 25.6404322 0.507715363 25.6404322 30.0180948 36.7067551 30.0180948"></polygon>
                                <g id="g76" transform="translate(27.919020, 3.426496)" fill="#FF9100">
                                    <path d="M0,3.08071815 C0,1.37947863 1.38427661,0 3.09204081,0 C4.79953295,0 6.18380956,1.37947863 6.18380956,3.08071815 C6.18380956,4.78222874 4.79953295,6.1614363 3.09204081,6.1614363 C1.38427661,6.1614363 0,4.78222874 0,3.08071815" id="path78"></path>
                                </g>
                                <g id="g80" transform="translate(15.425434, 0.223335)" fill="#F8DBF5">
                                    <polygon id="path82" points="0 0.636745001 8.49801098 0 10.3069841 23.9640025 1.80870104 24.6004764"></polygon>
                                </g>
                                <g id="g84" transform="translate(17.740615, 2.818322)" fill="#FF9100">
                                    <path d="M0,2.34232165 C0,1.04904349 1.05235494,0 2.35065839,0 C3.64896185,0 4.70131679,1.04904349 4.70131679,2.34232165 C4.70131679,3.63587088 3.64896185,4.6846433 2.35065839,4.6846433 C1.05235494,4.6846433 0,3.63587088 0,2.34232165" id="path86"></path>
                                </g>
                                <g id="g88" transform="translate(7.160530, 0.000000)" fill="#F8DBF5">
                                    <polygon id="path90" points="0 0.973956913 6.31576203 0 10.0055339 23.7485013 3.68977189 24.7227293"></polygon>
                                </g>
                                <g id="g92" transform="translate(9.227831, 2.129423)" fill="#8ACDC3">
                                    <path d="M0,1.90508466 C0,0.852788324 0.856194671,0 1.91208648,0 C2.96797829,0 3.82417296,0.852788324 3.82417296,1.90508466 C3.82417296,2.95765207 2.96797829,3.81016932 1.91208648,3.81016932 C0.856194671,3.81016932 0,2.95765207 0,1.90508466" id="path94"></path>
                                </g>
                                <g id="g96" fill="#BBEAD9">
                                    <polygon id="path98" points="0 0.973956913 6.31576203 0 10.0055339 23.7485013 3.68977189 24.7227293"></polygon>
                                </g>
                                <g id="g100" transform="translate(2.067246, 2.129423)" fill="#FFFFFF">
                                    <path d="M0,1.90508466 C0,0.852788324 0.855922605,0 1.91208648,0 C2.96825035,0 3.82444503,0.852788324 3.82444503,1.90508466 C3.82444503,2.95765207 2.96825035,3.81016932 1.91208648,3.81016932 C0.855922605,3.81016932 0,2.95765207 0,1.90508466" id="path102"></path>
                                </g>
                            </g>
                            <g id="g106" transform="translate(1.271859, 0.707522)">
                                <g id="g112" transform="translate(39.599171, 126.645834)" fill="#FFC800">
                                    <path d="M17.3795909,11.5416017 C17.3640831,8.72436425 15.0596761,6.45360525 12.2323564,6.46905628 C9.40503674,6.48423624 7.12565989,8.7802048 7.14108904,11.5974423 L17.3795909,11.5416017 Z M32.7638641,16.2330218 C32.8128604,25.2466637 25.5187456,32.5943052 16.4714315,32.6436214 C7.42411732,32.6929749 0.0497428165,25.4252992 0.000248088392,16.4113863 C-0.049017484,7.39693118 7.24536934,0.0495607012 16.2926835,0.000247198024 C25.3397256,-0.0488379516 32.7141001,7.21829561 32.7638641,16.2330218" id="path114"></path>
                                </g>
                                <g id="g116" transform="translate(41.437945, 136.633496)" fill="#FF8A00">
                                    <path d="M17.5964737,22.3701069 C26.4851728,20.690282 32.3242736,12.1483031 30.6377306,3.29242434 C30.4184446,2.13983186 30.0799933,1.03982709 29.6416935,0 C28.9832915,2.84678416 27.542697,6.68433162 24.3981473,9.03370111 C19.0542084,13.0257588 12.0182852,11.120132 8.16744965,11.3613849 C5.20926577,11.5467973 2.75440574,12.423982 1.06459795,13.2301461 L0,13.8487294 C3.24412624,20.0871498 10.3124254,23.7468749 17.5964737,22.3701069" id="path118"></path>
                                </g>
                                <g id="g120" transform="translate(39.196467, 0.000000)" fill="#DE84C8">
                                    <path d="M33.4046514,6.72960042 L32.0307133,6.72960042 C33.3932246,22.8176446 36.3873213,63.5798964 33.4857273,81.6237155 C29.0793311,81.2965332 23.279408,79.8731411 16.8651578,75.6590765 C11.5432563,72.1617228 6.90125009,70.1571552 2.98593471,69.6361573 C2.19694057,52.930072 6.08287272,20.6997695 7.91714806,6.72960042 L6.75460601,6.72960042 C3.02456821,6.72960042 0,3.71637887 0,0 L17.1875571,0 L15.1821517,62.5191969 C15.1220249,63.6070035 15.9912787,64.5213249 17.0844437,64.5213249 C18.0755836,64.5213249 18.9013068,63.7639534 18.9831989,62.7796958 L22.7695546,0 L40.1592574,0 C40.1592574,3.71637887 37.1355054,6.72960042 33.4046514,6.72960042" id="path122"></path>
                                </g>
                                <g id="g124" transform="translate(23.205868, 75.278439)" fill="#74CFC3">
                                    <path d="M53.2873036,18.1980583 C53.2873036,18.1980583 51.3591652,18.8632657 47.8010737,18.3948556 C47.8541268,24.6080664 49.5014921,30.1614912 51.1763362,34.1874328 L62.3139407,26.9804769 L53.2873036,18.1980583 Z M73.3446229,28.3371856 C73.2249134,29.9332497 72.4288455,31.4043502 71.1542119,32.3802046 L53.0933199,46.2785399 C50.569899,48.2204902 47.3396482,49.0093059 44.2005398,48.4500871 L43.0151441,48.2386519 L42.982224,48.2324173 C42.8064688,43.2054118 38.6876473,39.1762173 33.5991793,39.1762173 C29.7241298,39.1762173 26.4011041,41.5117622 24.9564287,44.8445761 C23.1384774,44.5022138 21.5272969,43.6258424 20.2548398,42.4019583 L20.2357951,42.4252704 L8.69743605,30.3325368 L6.72875965,36.267358 L0,32.2576807 L2.23230927,18.9879582 C2.85561464,17.0956139 4.43741185,15.6724929 6.39058044,15.2466408 C6.79133505,15.1596272 7.19807513,15.1165269 7.59882973,15.1165269 C9.15069958,15.1165269 10.6568622,15.7551694 11.7383283,16.9148097 L12.0879343,17.2897005 L18.1109523,25.8360165 C18.1109523,25.8360165 16.8232595,9.49208161 16.7473528,0 C18.3253411,0.00840319073 19.4416317,0.156136705 19.4416317,0.156136705 C21.8736381,0.72131905 25.2418269,2.12058584 29.7456231,5.07959326 C35.9150131,9.13318405 42.1434416,11.0081799 46.4459083,11.6747426 C50.7478308,12.3413054 54.5817982,11.9078634 56.149992,11.733565 C57.7181859,11.5592665 58.8086302,12.5394581 58.8086302,12.5394581 L71.7796938,24.0146927 C72.8943521,25.1683695 73.4624278,26.7403083 73.3446229,28.3371856" id="path126"></path>
                                </g>
                                <g id="g128" transform="translate(19.176272, 107.536038)" fill="#FFC800">
                                    <path d="M8.58176598,9.73143701 C12.4554551,19.8830336 10.8021043,4.53501229 10.7583015,4.00967733 C10.7583015,4.00940626 4.02981395,0 4.02981395,0 C2.29865199,0.631052517 -2.27207266,8.94072387 1.37389645,14.3353013 C5.96720266,20.8445212 6.22675452,9.63168301 8.58176598,9.73143701" id="path130"></path>
                                </g>
                                <g id="g132" transform="translate(70.997066, 144.307565)" fill="#FF8A00">
                                    <path d="M4.96875859,0.0671401904 C5.7686354,-0.0632448013 6.57286529,-0.0120124449 7.32893933,0.29402634 C10.0594032,1.39836825 11.1150229,5.13534849 9.68639939,8.64002116 C8.25832001,12.1446938 4.88686644,14.0904391 2.15667466,12.9855551 C1.22702192,12.60958 0.509309318,11.9121152 0,11.0384544 C2.8863582,8.03797321 4.61942464,4.14756697 4.96875859,0.0671401904" id="path134"></path>
                                </g>
                                <g id="g136" transform="translate(13.401691, 114.152386)" fill="#31A3AE">
                                    <path d="M5.0468418,22.0144622 C4.43523531,21.4595806 3.62746856,20.9288242 2.68992587,20.5010747 C1.75211112,20.0733252 0.821098036,19.8109288 0,19.712259 L9.05819682,0 C9.87956692,0.0986697235 10.8103079,0.361337202 11.7481227,0.789086717 C12.6859374,1.21683623 13.4934321,1.74732153 14.1053107,2.30247426 L5.0468418,22.0144622 Z" id="path138"></path>
                                </g>
                                <g id="g140" transform="translate(0.000000, 108.306801)" fill="#8ACDC3">
                                    <path d="M8.98392254,0 C10.7531739,1.6052805 13.0891407,3.13981156 15.8016481,4.37724916 C18.5141555,5.61468676 21.20653,6.37395571 23.5822185,6.65939312 L14.598296,26.2095519 C12.2226074,25.9241145 9.53023297,25.1648455 6.81772554,23.9274079 C4.10521811,22.6899703 1.76925133,21.1554393 0,19.5501588 L8.98392254,0 Z" id="path142"></path>
                                </g>
                                <g id="g144" transform="translate(17.171369, 116.139930)" fill="#8ACDC3">
                                    <path d="M8.98392254,0 C10.7531739,1.6052805 13.0891407,3.13981156 15.8016481,4.37724916 C18.5141555,5.61468676 21.20653,6.37395571 23.5822185,6.65939312 L14.598296,26.2095519 C12.2226074,25.9241145 9.53023297,25.1648455 6.81772554,23.9274079 C4.10521811,22.6899703 1.76925133,21.1554393 0,19.5501588 L8.98392254,0 Z" id="path146"></path>
                                </g>
                                <g id="g148" transform="translate(3.298047, 126.304128)" fill="#31A3AE">
                                    <path d="M0.118606152,0.148192223 C0.287845103,-0.0370068008 0.575725643,-0.0504473882 0.761605335,0.118171831 C1.91933383,1.16839563 3.42467261,2.14051415 5.11798899,2.91289437 C6.81128549,3.68538361 8.53371929,4.18562605 10.0877926,4.37238331 C10.3373662,4.40237524 10.5152829,4.62826696 10.4851807,4.87692657 C10.4550785,5.12558618 10.2283566,5.30285136 9.97878306,5.27285943 C8.32845863,5.07453541 6.51547943,4.54799608 4.73902654,3.73757054 C2.96257047,2.92726742 1.3781146,1.90405662 0.148736879,0.788836825 C-0.0371428131,0.620217606 -0.0506327991,0.333391248 0.118606152,0.148192223 Z" id="path150"></path>
                                </g>
                                <g id="g152" transform="translate(20.469416, 134.137257)" fill="#31A3AE">
                                    <path d="M0.118606152,0.148192223 C0.287845103,-0.0370068008 0.575725643,-0.0504473882 0.761605335,0.118171831 C1.91933383,1.16839563 3.42467261,2.14051415 5.11798899,2.91289437 C6.81128549,3.68538361 8.53371929,4.18562605 10.0877926,4.37238331 C10.3373662,4.40237524 10.5152829,4.62826696 10.4851807,4.87692657 C10.4550785,5.12558618 10.2283566,5.30285136 9.97878306,5.27285943 C8.32845863,5.07453541 6.51547943,4.54799608 4.73902654,3.73757054 C2.96257047,2.92726742 1.3781146,1.90405662 0.148736879,0.788836825 C-0.0371428131,0.620217606 -0.0506327991,0.333391248 0.118606152,0.148192223 Z" id="path154"></path>
                                </g>
                                <g id="g156" transform="translate(4.815990, 123.023251)" fill="#31A3AE">
                                    <path d="M0.118606152,0.148192223 C0.287845103,-0.0370068008 0.575725643,-0.0504473882 0.761605335,0.118171831 C1.91933383,1.16839563 3.42467261,2.14051415 5.11798899,2.91289437 C6.81128549,3.68538361 8.53371929,4.18562605 10.0877926,4.37238331 C10.3373662,4.40237524 10.5152829,4.62826696 10.4851807,4.87692657 C10.4550785,5.12558618 10.2283566,5.30285136 9.97878306,5.27285943 C8.32845863,5.07453541 6.51547943,4.54799608 4.73902654,3.73757054 C2.96257047,2.92726742 1.3781146,1.90405662 0.148736879,0.788836825 C-0.0371428131,0.620217606 -0.0506327991,0.333391248 0.118606152,0.148192223 Z" id="path158"></path>
                                </g>
                                <g id="g160" transform="translate(21.987359, 130.856381)" fill="#31A3AE">
                                    <path d="M0.118606152,0.148192223 C0.287845103,-0.0370068008 0.575725643,-0.0504473882 0.761605335,0.118171831 C1.91933383,1.16839563 3.42467261,2.14051415 5.11798899,2.91289437 C6.81128549,3.68538361 8.53371929,4.18562605 10.0877926,4.37238331 C10.3373662,4.40237524 10.5152829,4.62826696 10.4851807,4.87692657 C10.4550785,5.12558618 10.2283566,5.30285136 9.97878306,5.27285943 C8.32845863,5.07453541 6.51547943,4.54799608 4.73902654,3.73757054 C2.96257047,2.92726742 1.3781146,1.90405662 0.148736879,0.788836825 C-0.0371428131,0.620217606 -0.0506327991,0.333391248 0.118606152,0.148192223 Z" id="path162"></path>
                                </g>
                                <g id="g164" transform="translate(6.334042, 119.742375)" fill="#31A3AE">
                                    <path d="M0.118611542,0.14818632 C0.287853763,-0.0370097366 0.575734541,-0.0504452769 0.761611255,0.118177201 C1.76537072,1.02876145 3.03419082,1.88353108 4.46241364,2.59942904 C4.68697831,2.71199228 4.77743803,2.98462183 4.66446108,3.20836417 C4.55148413,3.43210651 4.27785258,3.52223498 4.05328791,3.40967174 C2.55310012,2.65770127 1.21558597,1.75665433 0.148730954,0.78883145 C-0.0371457596,0.620208972 -0.05063068,0.333382377 0.118611542,0.14818632 Z" id="path166"></path>
                                </g>
                                <g id="g168" transform="translate(23.505302, 127.575504)" fill="#31A3AE">
                                    <path d="M0.118606152,0.148192223 C0.287845103,-0.0370068008 0.575725643,-0.0504473882 0.761605335,0.118171831 C1.91933383,1.16839563 3.42467261,2.14051415 5.11798899,2.91289437 C6.81128549,3.68538361 8.53371929,4.18562605 10.0877926,4.37238331 C10.3373662,4.40237524 10.5152829,4.62826696 10.4851807,4.87692657 C10.4550785,5.12558618 10.2283566,5.30285136 9.97878306,5.27285943 C8.32845863,5.07453541 6.51547943,4.54799608 4.73902654,3.73757054 C2.96257047,2.92726742 1.3781146,1.90405662 0.148736879,0.788836825 C-0.0371428131,0.620217606 -0.0506327991,0.333391248 0.118606152,0.148192223 Z" id="path170"></path>
                                </g>
                                <g id="g172" transform="translate(7.851876, 116.461471)" fill="#31A3AE">
                                    <path d="M0.118606152,0.148192223 C0.287845103,-0.0370068008 0.575725643,-0.0504473882 0.761605335,0.118171831 C1.91933383,1.16839563 3.42467261,2.14051415 5.11798899,2.91289437 C6.81128549,3.68538361 8.53371929,4.18562605 10.0877926,4.37238331 C10.3373662,4.40237524 10.5152829,4.62826696 10.4851807,4.87692657 C10.4550785,5.12558618 10.2283566,5.30285136 9.97878306,5.27285943 C8.32845863,5.07453541 6.51547943,4.54799608 4.73902654,3.73757054 C2.96257047,2.92726742 1.3781146,1.90405662 0.148736879,0.788836825 C-0.0371428131,0.620217606 -0.0506327991,0.333391248 0.118606152,0.148192223 Z" id="path174"></path>
                                </g>
                                <g id="g176" transform="translate(25.023245, 124.294600)" fill="#31A3AE">
                                    <path d="M0.118606152,0.148192223 C0.287845103,-0.0370068008 0.575725643,-0.0504473882 0.761605335,0.118171831 C1.91933383,1.16839563 3.42467261,2.14051415 5.11798899,2.91289437 C6.81128549,3.68538361 8.53371929,4.18562605 10.0877926,4.37238331 C10.3373662,4.40237524 10.5152829,4.62826696 10.4851807,4.87692657 C10.4550785,5.12558618 10.2283566,5.30285136 9.97878306,5.27285943 C8.32845863,5.07453541 6.51547943,4.54799608 4.73902654,3.73757054 C2.96257047,2.92726742 1.3781146,1.90405662 0.148736879,0.788836825 C-0.0371428131,0.620217606 -0.0506327991,0.333391248 0.118606152,0.148192223 Z" id="path178"></path>
                                </g>
                                <g id="g180" transform="translate(9.369819, 113.180594)" fill="#31A3AE">
                                    <path d="M0.118606152,0.148192223 C0.287845103,-0.0370068008 0.575725643,-0.0504473882 0.761605335,0.118171831 C1.91933383,1.16839563 3.42467261,2.14051415 5.11798899,2.91289437 C6.81128549,3.68538361 8.53371929,4.18562605 10.0877926,4.37238331 C10.3373662,4.40237524 10.5152829,4.62826696 10.4851807,4.87692657 C10.4550785,5.12558618 10.2283566,5.30285136 9.97878306,5.27285943 C8.32845863,5.07453541 6.51547943,4.54799608 4.73902654,3.73757054 C2.96257047,2.92726742 1.3781146,1.90405662 0.148736879,0.788836825 C-0.0371428131,0.620217606 -0.0506327991,0.333391248 0.118606152,0.148192223 Z" id="path182"></path>
                                </g>
                                <g id="g184" transform="translate(26.541270, 121.013561)" fill="#31A3AE">
                                    <path d="M0.118645398,0.148149246 C0.287908163,-0.0370281731 0.575790429,-0.0504320118 0.761648437,0.118210934 C1.91913029,1.16848126 3.42439854,2.14066621 5.11771147,2.91316295 C5.86400021,3.25361131 6.61784471,3.54210099 7.3646406,3.77472085 C7.60457076,3.84945682 7.73826443,4.10383189 7.66325378,4.34288346 C7.58824312,4.58193503 7.33293314,4.71513914 7.09300297,4.64040316 C6.3094409,4.39633098 5.51975546,4.09412529 4.73873051,3.73783067 C2.96224114,2.92738848 1.37784245,1.90409674 0.148693744,0.788797688 C-0.0371642639,0.620154742 -0.0506173662,0.333326665 0.118645398,0.148149246 Z" id="path186"></path>
                                </g>
                                <g id="g188" transform="translate(23.206086, 107.536038)" fill="#FFC800">
                                    <path d="M4.55195203,9.73143701 C8.42564118,19.8830336 6.77229036,4.53501229 6.72848758,4.00967733 C6.72848758,4.00940626 0,0 0,0" id="path190"></path>
                                </g>
                                <g id="g192" transform="translate(42.728902, 139.682553)" fill="#247886">
                                    <path d="M3.5687021,6.20426547 C2.10280541,6.20426547 0.910335993,5.01616273 0.910335993,3.55563396 C0.910335993,2.0951052 2.10280541,0.907002458 3.5687021,0.907002458 C5.03459879,0.907002458 6.2270682,2.0951052 6.2270682,3.55563396 C6.2270682,5.01616273 5.03459879,6.20426547 3.5687021,6.20426547 M3.5687021,0 C1.6008419,0 0,1.59497982 0,3.55563396 C0,5.51628811 1.6008419,7.11126793 3.5687021,7.11126793 C5.5365623,7.11126793 7.1374042,5.51628811 7.1374042,3.55563396 C7.1374042,1.59497982 5.5365623,0 3.5687021,0" id="path194"></path>
                                </g>
                                <g id="g196" transform="translate(53.273891, 139.682553)" fill="#247886">
                                    <path d="M3.5687021,6.20426547 C2.10280541,6.20426547 0.910335993,5.01616273 0.910335993,3.55563396 C0.910335993,2.0951052 2.10280541,0.907002458 3.5687021,0.907002458 C5.03459879,0.907002458 6.2270682,2.0951052 6.2270682,3.55563396 C6.2270682,5.01616273 5.03459879,6.20426547 3.5687021,6.20426547 M3.5687021,0 C1.6008419,0 0,1.59497982 0,3.55563396 C0,5.51628811 1.6008419,7.11126793 3.5687021,7.11126793 C5.5365623,7.11126793 7.1374042,5.51628811 7.1374042,3.55563396 C7.1374042,1.59497982 5.5365623,0 3.5687021,0" id="path198"></path>
                                </g>
                                <g id="g200" transform="translate(49.041155, 142.907074)" fill="#247886">
                                    <path d="M4.40993309,0 C3.90660924,0.55135774 3.18971285,0.86742614 2.44234495,0.86742614 C1.76353793,0.86742614 1.11737894,0.612619712 0.623033301,0.150173151 L0,0.811043441 C0.663843342,1.43233741 1.53119276,1.7744286 2.44234495,1.7744286 C3.44545577,1.7744286 4.40802862,1.350203 5.08329877,0.610451146 L4.40993309,0 Z" id="path202"></path>
                                </g>
                            </g>
                            <g id="g212" transform="translate(88.467899, 0.707467)" fill="#31A3AE">
                                <path d="M35.8676734,0 C35.2688541,1.86659263 34.9170715,4.13084592 34.9170715,6.57400586 C34.9170715,9.01689473 35.2688541,11.2814191 35.8676734,13.1480117 L0.950601901,13.1480117 C0.351782558,11.2814191 0,9.01689473 0,6.57400586 C0,4.13084592 0.351782558,1.86659263 0.950601901,0 L35.8676734,0 Z" id="path214"></path>
                            </g>
                            <g id="g224" transform="translate(92.148448, 15.689923)" fill="#74CFC3">
                                <path d="M30.5063223,0 C30.1977983,0.962029804 30.0166018,2.12898903 30.0166018,3.38811229 C30.0166018,4.64723555 30.1977983,5.81446585 30.5063223,6.77649565 L0.489992565,6.77649565 C0.181196584,5.81446585 0,4.64723555 0,3.38811229 C0,2.12898903 0.181196584,0.962029804 0.489992565,0 L30.5063223,0 Z" id="path226"></path>
                            </g>
                            <g id="g236" transform="translate(87.682714, 24.300808)" fill="#FDC129">
                                <path d="M25.4513184,0 C25.2249587,0.70532588 25.0921901,1.56109598 25.0921901,2.48436268 C25.0921901,3.40735831 25.2249587,4.26312841 25.4513184,4.96845429 L0.359128366,4.96845429 C0.132768668,4.26312841 0,3.40735831 0,2.48436268 C0,1.56109598 0.132768668,0.70532588 0.359128366,0 L25.4513184,0 Z" id="path238"></path>
                            </g>
                            <g id="g248" transform="translate(92.586204, 31.103760)" fill="#74CFC3">
                                <path d="M0,6.77649565 C0.308523914,5.81446585 0.489992565,4.64750662 0.489992565,3.38838336 C0.489992565,2.1292601 0.308523914,0.962029804 0,0 L30.0166018,0.000271070669 C30.3251257,0.962029804 30.5063223,2.1292601 30.5063223,3.38838336 C30.5063223,4.64750662 30.3251257,5.81446585 30.0166018,6.77649565 L0,6.77649565 Z" id="path250"></path>
                            </g>
                            <g id="g260" transform="translate(89.000525, 39.714781)" fill="#31A3AE">
                                <path d="M22.8155339,0 C22.4346402,1.18728953 22.2110011,2.62775906 22.2110011,4.18180721 C22.2110011,5.73585535 22.4346402,7.17605382 22.8155339,8.36334335 L0.604532749,8.36334335 C0.223911095,7.17605382 0,5.73585535 0,4.18180721 C0,2.62775906 0.223911095,1.18728953 0.604532749,0 L22.8155339,0 Z" id="path262"></path>
                            </g>
                            <polygon id="path264" fill="#FFFFFF" points="141.779825 106.913796 106.89132 106.913796 106.89132 157.120692 141.779825 157.120692"></polygon>
                            <g id="g268" transform="translate(104.671091, 104.701696)">
                                <g id="g274" fill="#247886">
                                    <path d="M39.3289091,54.6310405 L37.1085708,54.6310405 L2.22006626,54.6310405 L0.0160519497,54.6310405 C0.00734580748,54.6310405 0,54.6237215 0,54.6150473 L0,52.4188327 L0,2.21220773 L0,0.0162642401 C0,0.00731890806 0.00734580748,0 0.0160519497,0 L2.22006626,0 L37.1085708,0 L39.3128571,0 C39.3215633,0 39.3289091,0.00731890806 39.3289091,0.0162642401 L39.3289091,2.21220773 L39.3289091,52.4188327 L39.3289091,54.6310405 Z M37.1085708,52.4188327 L37.1085708,2.2282009 C37.1085708,2.21952664 37.101497,2.21220773 37.0925188,2.21220773 L2.23639028,2.21220773 C2.22741207,2.21220773 2.22006626,2.21952664 2.22006626,2.2282009 L2.22006626,52.4028396 C2.22006626,52.4117849 2.22741207,52.4188327 2.23639028,52.4188327 L37.1085708,52.4188327" id="path276"></path>
                                </g>
                                <g id="g278" transform="translate(18.533600, 15.992216)" fill="#31A3AE">
                                    <path d="M8.42668375,1.64271964 L5.31967925,2.85142376 C5.31015691,2.85521875 5.29927423,2.85169483 5.29410496,2.84302057 L3.55015585,0.0100610054 C3.54090557,-0.0051189521 3.51805195,-0.00267931608 3.51233854,0.0143981361 L1.7604995,5.20811215 L0.00104257099,10.4248672 C-0.00249429928,10.43571 0.00321910654,10.4476371 0.0143738512,10.451161 L2.46542495,11.271963 L4.91647604,12.0924939 C4.92735872,12.0962889 4.93932966,12.0903254 4.94286653,12.0794825 L6.70232346,6.86272751 L8.45416251,1.6690135 C8.45987591,1.65193605 8.44327983,1.63621395 8.42668375,1.64271964" id="path280"></path>
                                </g>
                                <g id="g282" transform="translate(12.339998, 15.992216)" fill="#31A3AE">
                                    <path d="M0.0286281708,1.64271964 L3.13563267,2.85142376 C3.14515501,2.85521875 3.15603769,2.85169483 3.16120696,2.84302057 L4.90515607,0.0100610054 C4.91440634,-0.0051189521 4.93725997,-0.00267931608 4.94297337,0.0143981361 L6.69481242,5.20811215 L8.45426935,10.4248672 C8.45780622,10.43571 8.45209281,10.4476371 8.44093807,10.451161 L5.98988697,11.271963 L3.53883588,12.0924939 C3.5279532,12.0962889 3.51598225,12.0903254 3.51244538,12.0794825 L1.75298846,6.86272751 L0.00114940951,1.6690135 C-0.00456399631,1.65193605 0.0120320872,1.63621395 0.0286281708,1.64271964" id="path284"></path>
                                </g>
                                <g id="g286" transform="translate(10.131038, 23.234145)" fill="#8ACDC3">
                                    <path d="M19.0667235,9.49831624 C19.0667235,4.25255665 14.7985373,0 9.53349777,0 C4.26845828,0 0,4.25255665 0,9.49831624 C0,14.7440758 4.26845828,18.9966325 9.53349777,18.9966325 C14.7985373,18.9966325 19.0667235,14.7440758 19.0667235,9.49831624" id="path288"></path>
                                </g>
                                <g id="g290" transform="translate(14.517492, 27.604346)" fill="#FFFFFF">
                                    <path d="M10.2939249,5.12811491 C10.2939249,2.29596857 7.98951787,0 5.14696244,0 C2.30440701,0 0,2.29596857 0,5.12811491 C0,7.96026126 2.30440701,10.2562298 5.14696244,10.2562298 C7.98951787,10.2562298 10.2939249,7.96026126 10.2939249,5.12811491" id="path292"></path>
                                </g>
                            </g>
                        </g>
                    </g>
                </g>
            </g>
        </g>
    </g>
</svg>