<?xml version="1.0" encoding="UTF-8"?>
<svg width="22px" height="23px" viewBox="0 0 22 23" version="1.1" xmlns="http://www.w3.org/2000/svg" xmlns:xlink="http://www.w3.org/1999/xlink">
    <!-- Generator: sketchtool 52.2 (67145) - http://www.bohemiancoding.com/sketch -->
    <title>7EE5DC04-3EAA-477C-B480-D653A3B46939</title>
    <desc>Created with sketchtool.</desc>
    <g id="Page-1" stroke="none" stroke-width="1" fill="none" fill-rule="evenodd">
        <g id="NPS-scale-desktop1" transform="translate(-375.000000, -397.000000)">
            <g id="Group" transform="translate(375.000000, 397.000000)">
                <circle id="Oval" fill="#F9F8F6" fill-rule="nonzero" cx="11" cy="11.614599" r="11"></circle>
                <path d="M11,22.614599 C4.93011349,22.614599 2.84217094e-14,17.6845218 2.84217094e-14,11.6146224 C2.84217094e-14,5.54472297 4.93016027,0.61459899 11,0.61459899 C17.0698397,0.61459899 22,5.54467619 22,11.6145756 C22,17.684475 17.0698865,22.614599 11,22.614599 Z M11,2.20496156 C5.81804845,2.20496156 1.59035919,6.43270659 1.59035919,11.6146224 C1.59035919,16.7965382 5.81809523,21.0242364 11,21.0242364 C16.1819048,21.0242364 20.4096408,16.7965849 20.4096408,11.6146224 C20.4096408,6.43265981 16.1819048,2.20496156 11,2.20496156 Z M7.6867205,9.81218028 C7.35541126,9.81218028 7.03733942,9.67966566 6.79878554,9.44111127 C6.30844038,8.95071829 6.30844038,8.15553701 6.79878554,7.66519081 C7.03733942,7.42663642 7.35541126,7.2941218 7.6867205,7.2941218 C8.01802974,7.2941218 8.33610158,7.42663642 8.57465546,7.66519081 C9.06500062,8.15558378 9.06500062,8.95076507 8.57465546,9.44111127 C8.33610158,9.67966566 8.01802974,9.81218028 7.6867205,9.81218028 Z M13.9951609,9.81218028 C13.6505675,9.81218028 13.3457798,9.67966566 13.1072259,9.44111127 C12.6168808,8.95071829 12.6168808,8.15553701 13.1072259,7.66519081 C13.3457798,7.42663642 13.6638516,7.2941218 13.9951609,7.2941218 C14.3264701,7.2941218 14.644542,7.42663642 14.8830958,7.66519081 C15.373441,8.15558378 15.373441,8.95076507 14.8830958,9.44111127 C14.644542,9.67966566 14.3264701,9.81218028 13.9951609,9.81218028 Z M5.83963062,16.1280677 L5.81804845,16.1227187 C5.85780743,16.0034415 6.61322805,13.1407889 10.8012051,13.1407889 C10.8720917,13.1407889 10.9421086,13.1416149 11.011265,13.1432387 C11.0804214,13.1416149 11.1504383,13.1407889 11.2213248,13.1407889 C15.4093019,13.1407889 16.1647225,16.0034415 16.2044815,16.1227187 L16.1828993,16.1280677 C16.2726265,16.5042188 16.0758237,16.8953863 15.7180344,17.0504146 C15.3072072,17.2226883 14.8433369,17.0371772 14.6843009,16.6263024 C14.645427,16.5485543 13.8463812,14.8110792 11.011265,14.7337646 C8.17614875,14.8110792 7.37710292,16.5485543 7.33822898,16.6263024 C7.17919306,17.0371772 6.71532271,17.2226883 6.30449551,17.0504146 C5.94670626,16.8953863 5.74990347,16.5042188 5.83963062,16.1280677 Z" id="Combined-Shape" fill="#999999"></path>
            </g>
        </g>
    </g>
</svg>